<svg width="502" height="70" viewBox="0 0 502 70" fill="none" xmlns="http://www.w3.org/2000/svg">
<path d="M2.688 3.032V6.76H6.752V7.96H2.688V11.8H7.232V13H1.232V1.832H7.232V3.032H2.688ZM14.0111 13L11.9311 9.736L9.93113 13H8.41113L11.2431 8.648L8.41113 4.232H10.0591L12.1391 7.48L14.1231 4.232H15.6431L12.8271 8.568L15.6591 13H14.0111ZM16.5474 8.6C16.5474 7.69333 16.7287 6.904 17.0914 6.232C17.454 5.54933 17.9554 5.02133 18.5954 4.648C19.246 4.27467 19.9874 4.088 20.8194 4.088C21.8967 4.088 22.782 4.34933 23.4754 4.872C24.1794 5.39467 24.6434 6.12 24.8674 7.048H23.2994C23.15 6.51467 22.8567 6.09333 22.4194 5.784C21.9927 5.47467 21.4594 5.32 20.8194 5.32C19.9874 5.32 19.3154 5.608 18.8034 6.184C18.2914 6.74933 18.0354 7.55467 18.0354 8.6C18.0354 9.656 18.2914 10.472 18.8034 11.048C19.3154 11.624 19.9874 11.912 20.8194 11.912C21.4594 11.912 21.9927 11.7627 22.4194 11.464C22.846 11.1653 23.1394 10.7387 23.2994 10.184H24.8674C24.6327 11.08 24.1634 11.8 23.4594 12.344C22.7554 12.8773 21.8754 13.144 20.8194 13.144C19.9874 13.144 19.246 12.9573 18.5954 12.584C17.9554 12.2107 17.454 11.6827 17.0914 11C16.7287 10.3173 16.5474 9.51733 16.5474 8.6ZM28.2661 1.16V13H26.8101V1.16H28.2661ZM38.5236 4.232V13H37.0676V11.704C36.7903 12.152 36.401 12.504 35.8996 12.76C35.409 13.0053 34.865 13.128 34.2676 13.128C33.585 13.128 32.9716 12.9893 32.4276 12.712C31.8836 12.424 31.4516 11.9973 31.1316 11.432C30.8223 10.8667 30.6676 10.1787 30.6676 9.368V4.232H32.1076V9.176C32.1076 10.04 32.3263 10.7067 32.7636 11.176C33.201 11.6347 33.7983 11.864 34.5556 11.864C35.3343 11.864 35.9476 11.624 36.3956 11.144C36.8436 10.664 37.0676 9.96533 37.0676 9.048V4.232H38.5236ZM44.086 13.144C43.414 13.144 42.8113 13.032 42.278 12.808C41.7447 12.5733 41.3233 12.2533 41.014 11.848C40.7047 11.432 40.534 10.9573 40.502 10.424H42.006C42.0487 10.8613 42.2513 11.2187 42.614 11.496C42.9873 11.7733 43.4727 11.912 44.07 11.912C44.6247 11.912 45.062 11.7893 45.382 11.544C45.702 11.2987 45.862 10.9893 45.862 10.616C45.862 10.232 45.6913 9.94933 45.35 9.768C45.0087 9.576 44.4807 9.38933 43.766 9.208C43.1153 9.03733 42.582 8.86667 42.166 8.696C41.7607 8.51467 41.4087 8.25333 41.11 7.912C40.822 7.56 40.678 7.10133 40.678 6.536C40.678 6.088 40.8113 5.67733 41.078 5.304C41.3447 4.93067 41.7233 4.63733 42.214 4.424C42.7047 4.2 43.2647 4.088 43.894 4.088C44.8647 4.088 45.6487 4.33333 46.246 4.824C46.8433 5.31467 47.1633 5.98667 47.206 6.84H45.75C45.718 6.38133 45.5313 6.01333 45.19 5.736C44.8593 5.45867 44.4113 5.32 43.846 5.32C43.3233 5.32 42.9073 5.432 42.598 5.656C42.2887 5.88 42.134 6.17333 42.134 6.536C42.134 6.824 42.2247 7.064 42.406 7.256C42.598 7.43733 42.8327 7.58667 43.11 7.704C43.398 7.81067 43.7927 7.93333 44.294 8.072C44.9233 8.24267 45.4353 8.41333 45.83 8.584C46.2247 8.744 46.5607 8.98933 46.838 9.32C47.126 9.65067 47.2753 10.0827 47.286 10.616C47.286 11.096 47.1527 11.528 46.886 11.912C46.6193 12.296 46.2407 12.6 45.75 12.824C45.27 13.0373 44.7153 13.144 44.086 13.144ZM50.0934 2.808C49.816 2.808 49.5814 2.712 49.3894 2.52C49.1974 2.328 49.1014 2.09333 49.1014 1.816C49.1014 1.53867 49.1974 1.304 49.3894 1.112C49.5814 0.919999 49.816 0.823999 50.0934 0.823999C50.36 0.823999 50.584 0.919999 50.7654 1.112C50.9574 1.304 51.0534 1.53867 51.0534 1.816C51.0534 2.09333 50.9574 2.328 50.7654 2.52C50.584 2.712 50.36 2.808 50.0934 2.808ZM50.7974 4.232V13H49.3414V4.232H50.7974ZM56.5429 11.656L59.2629 4.232H60.8149L57.3749 13H55.6789L52.2389 4.232H53.8069L56.5429 11.656ZM70.2476 8.28C70.2476 8.55733 70.2316 8.85067 70.1996 9.16H63.1916C63.245 10.024 63.5383 10.7013 64.0716 11.192C64.6156 11.672 65.2716 11.912 66.0396 11.912C66.669 11.912 67.1916 11.768 67.6076 11.48C68.0343 11.1813 68.333 10.7867 68.5036 10.296H70.0716C69.837 11.1387 69.3676 11.8267 68.6636 12.36C67.9596 12.8827 67.085 13.144 66.0396 13.144C65.2076 13.144 64.461 12.9573 63.7996 12.584C63.149 12.2107 62.637 11.6827 62.2636 11C61.8903 10.3067 61.7036 9.50667 61.7036 8.6C61.7036 7.69333 61.885 6.89867 62.2476 6.216C62.6103 5.53333 63.117 5.01067 63.7676 4.648C64.429 4.27467 65.1863 4.088 66.0396 4.088C66.8716 4.088 67.6076 4.26933 68.2476 4.632C68.8876 4.99467 69.3783 5.496 69.7196 6.136C70.0716 6.76533 70.2476 7.48 70.2476 8.28ZM68.7436 7.976C68.7436 7.42133 68.621 6.94667 68.3756 6.552C68.1303 6.14667 67.7943 5.84267 67.3676 5.64C66.9516 5.42667 66.4876 5.32 65.9756 5.32C65.2396 5.32 64.6103 5.55467 64.0876 6.024C63.5756 6.49333 63.2823 7.144 63.2076 7.976H68.7436ZM80.7871 4.072C81.4485 4.072 82.0458 4.216 82.5791 4.504C83.1125 4.78133 83.5285 5.20267 83.8271 5.768C84.1365 6.33333 84.2911 7.02133 84.2911 7.832V13H82.8511V8.04C82.8511 7.16533 82.6325 6.49867 82.1951 6.04C81.7578 5.57067 81.1605 5.336 80.4031 5.336C79.6351 5.336 79.0218 5.576 78.5631 6.056C78.1151 6.536 77.8911 7.23467 77.8911 8.152V13H76.4351V1.16H77.8911V5.48C78.1791 5.032 78.5738 4.68533 79.0751 4.44C79.5871 4.19467 80.1578 4.072 80.7871 4.072ZM86.1255 8.584C86.1255 7.688 86.3068 6.904 86.6695 6.232C87.0322 5.54933 87.5282 5.02133 88.1575 4.648C88.7975 4.27467 89.5068 4.088 90.2855 4.088C91.0535 4.088 91.7202 4.25333 92.2855 4.584C92.8508 4.91467 93.2722 5.33067 93.5495 5.832V4.232H95.0215V13H93.5495V11.368C93.2615 11.88 92.8295 12.3067 92.2535 12.648C91.6882 12.9787 91.0268 13.144 90.2695 13.144C89.4908 13.144 88.7868 12.952 88.1575 12.568C87.5282 12.184 87.0322 11.6453 86.6695 10.952C86.3068 10.2587 86.1255 9.46933 86.1255 8.584ZM93.5495 8.6C93.5495 7.93867 93.4162 7.36267 93.1495 6.872C92.8828 6.38133 92.5202 6.008 92.0615 5.752C91.6135 5.48533 91.1175 5.352 90.5735 5.352C90.0295 5.352 89.5335 5.48 89.0855 5.736C88.6375 5.992 88.2802 6.36533 88.0135 6.856C87.7468 7.34667 87.6135 7.92267 87.6135 8.584C87.6135 9.256 87.7468 9.84267 88.0135 10.344C88.2802 10.8347 88.6375 11.2133 89.0855 11.48C89.5335 11.736 90.0295 11.864 90.5735 11.864C91.1175 11.864 91.6135 11.736 92.0615 11.48C92.5202 11.2133 92.8828 10.8347 93.1495 10.344C93.4162 9.84267 93.5495 9.26133 93.5495 8.6ZM100.586 13.144C99.914 13.144 99.3113 13.032 98.778 12.808C98.2447 12.5733 97.8233 12.2533 97.514 11.848C97.2047 11.432 97.034 10.9573 97.002 10.424H98.506C98.5487 10.8613 98.7513 11.2187 99.114 11.496C99.4873 11.7733 99.9727 11.912 100.57 11.912C101.125 11.912 101.562 11.7893 101.882 11.544C102.202 11.2987 102.362 10.9893 102.362 10.616C102.362 10.232 102.191 9.94933 101.85 9.768C101.509 9.576 100.981 9.38933 100.266 9.208C99.6153 9.03733 99.082 8.86667 98.666 8.696C98.2607 8.51467 97.9087 8.25333 97.61 7.912C97.322 7.56 97.178 7.10133 97.178 6.536C97.178 6.088 97.3113 5.67733 97.578 5.304C97.8447 4.93067 98.2233 4.63733 98.714 4.424C99.2047 4.2 99.7647 4.088 100.394 4.088C101.365 4.088 102.149 4.33333 102.746 4.824C103.343 5.31467 103.663 5.98667 103.706 6.84H102.25C102.218 6.38133 102.031 6.01333 101.69 5.736C101.359 5.45867 100.911 5.32 100.346 5.32C99.8233 5.32 99.4073 5.432 99.098 5.656C98.7887 5.88 98.634 6.17333 98.634 6.536C98.634 6.824 98.7247 7.064 98.906 7.256C99.098 7.43733 99.3327 7.58667 99.61 7.704C99.898 7.81067 100.293 7.93333 100.794 8.072C101.423 8.24267 101.935 8.41333 102.33 8.584C102.725 8.744 103.061 8.98933 103.338 9.32C103.626 9.65067 103.775 10.0827 103.786 10.616C103.786 11.096 103.653 11.528 103.386 11.912C103.119 12.296 102.741 12.6 102.25 12.824C101.77 13.0373 101.215 13.144 100.586 13.144ZM120.651 4.072C121.334 4.072 121.942 4.216 122.475 4.504C123.008 4.78133 123.43 5.20267 123.739 5.768C124.048 6.33333 124.203 7.02133 124.203 7.832V13H122.763V8.04C122.763 7.16533 122.544 6.49867 122.107 6.04C121.68 5.57067 121.099 5.336 120.363 5.336C119.606 5.336 119.003 5.58133 118.555 6.072C118.107 6.552 117.883 7.25067 117.883 8.168V13H116.443V8.04C116.443 7.16533 116.224 6.49867 115.787 6.04C115.36 5.57067 114.779 5.336 114.043 5.336C113.286 5.336 112.683 5.58133 112.235 6.072C111.787 6.552 111.563 7.25067 111.563 8.168V13H110.107V4.232H111.563V5.496C111.851 5.03733 112.235 4.68533 112.715 4.44C113.206 4.19467 113.744 4.072 114.331 4.072C115.067 4.072 115.718 4.23733 116.283 4.568C116.848 4.89867 117.27 5.384 117.547 6.024C117.792 5.40533 118.198 4.92533 118.763 4.584C119.328 4.24267 119.958 4.072 120.651 4.072ZM130.415 13.144C129.594 13.144 128.847 12.9573 128.175 12.584C127.514 12.2107 126.991 11.6827 126.607 11C126.234 10.3067 126.047 9.50667 126.047 8.6C126.047 7.704 126.239 6.91467 126.623 6.232C127.018 5.53867 127.551 5.01067 128.223 4.648C128.895 4.27467 129.647 4.088 130.479 4.088C131.311 4.088 132.063 4.27467 132.735 4.648C133.407 5.01067 133.935 5.53333 134.319 6.216C134.714 6.89867 134.911 7.69333 134.911 8.6C134.911 9.50667 134.709 10.3067 134.303 11C133.909 11.6827 133.37 12.2107 132.687 12.584C132.005 12.9573 131.247 13.144 130.415 13.144ZM130.415 11.864C130.938 11.864 131.429 11.7413 131.887 11.496C132.346 11.2507 132.714 10.8827 132.991 10.392C133.279 9.90133 133.423 9.304 133.423 8.6C133.423 7.896 133.285 7.29867 133.007 6.808C132.73 6.31733 132.367 5.95467 131.919 5.72C131.471 5.47467 130.986 5.352 130.463 5.352C129.93 5.352 129.439 5.47467 128.991 5.72C128.554 5.95467 128.202 6.31733 127.935 6.808C127.669 7.29867 127.535 7.896 127.535 8.6C127.535 9.31467 127.663 9.91733 127.919 10.408C128.186 10.8987 128.538 11.2667 128.975 11.512C129.413 11.7467 129.893 11.864 130.415 11.864ZM138.282 5.656C138.538 5.15467 138.9 4.76533 139.37 4.488C139.85 4.21067 140.431 4.072 141.114 4.072V5.576H140.73C139.098 5.576 138.282 6.46133 138.282 8.232V13H136.826V4.232H138.282V5.656ZM150.795 8.28C150.795 8.55733 150.779 8.85067 150.747 9.16H143.739C143.792 10.024 144.085 10.7013 144.619 11.192C145.163 11.672 145.819 11.912 146.587 11.912C147.216 11.912 147.739 11.768 148.155 11.48C148.581 11.1813 148.88 10.7867 149.051 10.296H150.619C150.384 11.1387 149.915 11.8267 149.211 12.36C148.507 12.8827 147.632 13.144 146.587 13.144C145.755 13.144 145.008 12.9573 144.347 12.584C143.696 12.2107 143.184 11.6827 142.811 11C142.437 10.3067 142.251 9.50667 142.251 8.6C142.251 7.69333 142.432 6.89867 142.795 6.216C143.157 5.53333 143.664 5.01067 144.315 4.648C144.976 4.27467 145.733 4.088 146.587 4.088C147.419 4.088 148.155 4.26933 148.795 4.632C149.435 4.99467 149.925 5.496 150.267 6.136C150.619 6.76533 150.795 7.48 150.795 8.28ZM149.291 7.976C149.291 7.42133 149.168 6.94667 148.923 6.552C148.677 6.14667 148.341 5.84267 147.915 5.64C147.499 5.42667 147.035 5.32 146.523 5.32C145.787 5.32 145.157 5.55467 144.635 6.024C144.123 6.49333 143.829 7.144 143.755 7.976H149.291ZM158.758 5.432V10.6C158.758 11.0267 158.849 11.3307 159.03 11.512C159.211 11.6827 159.526 11.768 159.974 11.768H161.046V13H159.734C158.923 13 158.315 12.8133 157.91 12.44C157.505 12.0667 157.302 11.4533 157.302 10.6V5.432H156.166V4.232H157.302V2.024H158.758V4.232H161.046V5.432H158.758ZM167.162 4.072C167.823 4.072 168.421 4.216 168.954 4.504C169.487 4.78133 169.903 5.20267 170.202 5.768C170.511 6.33333 170.666 7.02133 170.666 7.832V13H169.226V8.04C169.226 7.16533 169.007 6.49867 168.57 6.04C168.133 5.57067 167.535 5.336 166.778 5.336C166.01 5.336 165.397 5.576 164.938 6.056C164.49 6.536 164.266 7.23467 164.266 8.152V13H162.81V1.16H164.266V5.48C164.554 5.032 164.949 4.68533 165.45 4.44C165.962 4.19467 166.533 4.072 167.162 4.072ZM172.501 8.584C172.501 7.688 172.682 6.904 173.045 6.232C173.407 5.54933 173.903 5.02133 174.533 4.648C175.173 4.27467 175.882 4.088 176.661 4.088C177.429 4.088 178.095 4.25333 178.661 4.584C179.226 4.91467 179.647 5.33067 179.925 5.832V4.232H181.397V13H179.925V11.368C179.637 11.88 179.205 12.3067 178.629 12.648C178.063 12.9787 177.402 13.144 176.645 13.144C175.866 13.144 175.162 12.952 174.533 12.568C173.903 12.184 173.407 11.6453 173.045 10.952C172.682 10.2587 172.501 9.46933 172.501 8.584ZM179.925 8.6C179.925 7.93867 179.791 7.36267 179.525 6.872C179.258 6.38133 178.895 6.008 178.437 5.752C177.989 5.48533 177.493 5.352 176.949 5.352C176.405 5.352 175.909 5.48 175.461 5.736C175.013 5.992 174.655 6.36533 174.389 6.856C174.122 7.34667 173.989 7.92267 173.989 8.584C173.989 9.256 174.122 9.84267 174.389 10.344C174.655 10.8347 175.013 11.2133 175.461 11.48C175.909 11.736 176.405 11.864 176.949 11.864C177.493 11.864 177.989 11.736 178.437 11.48C178.895 11.2133 179.258 10.8347 179.525 10.344C179.791 9.84267 179.925 9.26133 179.925 8.6ZM188.129 4.072C189.196 4.072 190.06 4.39733 190.721 5.048C191.382 5.688 191.713 6.616 191.713 7.832V13H190.273V8.04C190.273 7.16533 190.054 6.49867 189.617 6.04C189.18 5.57067 188.582 5.336 187.825 5.336C187.057 5.336 186.444 5.576 185.985 6.056C185.537 6.536 185.313 7.23467 185.313 8.152V13H183.857V4.232H185.313V5.48C185.601 5.032 185.99 4.68533 186.481 4.44C186.982 4.19467 187.532 4.072 188.129 4.072ZM197.733 2.76V1.432H200.741V13H199.269V2.76H197.733ZM219.06 1.928V13H217.604V4.744L213.924 13H212.9L209.204 4.728V13H207.748V1.928H209.316L213.412 11.08L217.508 1.928H219.06ZM222.281 2.808C222.004 2.808 221.769 2.712 221.577 2.52C221.385 2.328 221.289 2.09333 221.289 1.816C221.289 1.53867 221.385 1.304 221.577 1.112C221.769 0.919999 222.004 0.823999 222.281 0.823999C222.548 0.823999 222.772 0.919999 222.953 1.112C223.145 1.304 223.241 1.53867 223.241 1.816C223.241 2.09333 223.145 2.328 222.953 2.52C222.772 2.712 222.548 2.808 222.281 2.808ZM222.985 4.232V13H221.529V4.232H222.985ZM226.922 1.16V13H225.466V1.16H226.922ZM230.86 1.16V13H229.404V1.16H230.86ZM234.093 2.808C233.816 2.808 233.581 2.712 233.389 2.52C233.197 2.328 233.101 2.09333 233.101 1.816C233.101 1.53867 233.197 1.304 233.389 1.112C233.581 0.919999 233.816 0.823999 234.093 0.823999C234.36 0.823999 234.584 0.919999 234.765 1.112C234.957 1.304 235.053 1.53867 235.053 1.816C235.053 2.09333 234.957 2.328 234.765 2.52C234.584 2.712 234.36 2.808 234.093 2.808ZM234.797 4.232V13H233.341V4.232H234.797ZM241.103 13.144C240.282 13.144 239.535 12.9573 238.863 12.584C238.202 12.2107 237.679 11.6827 237.295 11C236.922 10.3067 236.735 9.50667 236.735 8.6C236.735 7.704 236.927 6.91467 237.311 6.232C237.706 5.53867 238.239 5.01067 238.911 4.648C239.583 4.27467 240.335 4.088 241.167 4.088C241.999 4.088 242.751 4.27467 243.423 4.648C244.095 5.01067 244.623 5.53333 245.007 6.216C245.402 6.89867 245.599 7.69333 245.599 8.6C245.599 9.50667 245.396 10.3067 244.991 11C244.596 11.6827 244.058 12.2107 243.375 12.584C242.692 12.9573 241.935 13.144 241.103 13.144ZM241.103 11.864C241.626 11.864 242.116 11.7413 242.575 11.496C243.034 11.2507 243.402 10.8827 243.679 10.392C243.967 9.90133 244.111 9.304 244.111 8.6C244.111 7.896 243.972 7.29867 243.695 6.808C243.418 6.31733 243.055 5.95467 242.607 5.72C242.159 5.47467 241.674 5.352 241.151 5.352C240.618 5.352 240.127 5.47467 239.679 5.72C239.242 5.95467 238.89 6.31733 238.623 6.808C238.356 7.29867 238.223 7.896 238.223 8.6C238.223 9.31467 238.351 9.91733 238.607 10.408C238.874 10.8987 239.226 11.2667 239.663 11.512C240.1 11.7467 240.58 11.864 241.103 11.864ZM251.785 4.072C252.852 4.072 253.716 4.39733 254.377 5.048C255.039 5.688 255.369 6.616 255.369 7.832V13H253.929V8.04C253.929 7.16533 253.711 6.49867 253.273 6.04C252.836 5.57067 252.239 5.336 251.481 5.336C250.713 5.336 250.1 5.576 249.641 6.056C249.193 6.536 248.969 7.23467 248.969 8.152V13H247.513V4.232H248.969V5.48C249.257 5.032 249.647 4.68533 250.137 4.44C250.639 4.19467 251.188 4.072 251.785 4.072ZM263.469 5.848C263.757 5.34667 264.184 4.93067 264.749 4.6C265.325 4.25867 265.992 4.088 266.749 4.088C267.528 4.088 268.232 4.27467 268.861 4.648C269.501 5.02133 270.003 5.54933 270.365 6.232C270.728 6.904 270.909 7.688 270.909 8.584C270.909 9.46933 270.728 10.2587 270.365 10.952C270.003 11.6453 269.501 12.184 268.861 12.568C268.232 12.952 267.528 13.144 266.749 13.144C266.003 13.144 265.341 12.9787 264.765 12.648C264.2 12.3067 263.768 11.8853 263.469 11.384V17.16H262.013V4.232H263.469V5.848ZM269.421 8.584C269.421 7.92267 269.288 7.34667 269.021 6.856C268.755 6.36533 268.392 5.992 267.933 5.736C267.485 5.48 266.989 5.352 266.445 5.352C265.912 5.352 265.416 5.48533 264.957 5.752C264.509 6.008 264.147 6.38667 263.869 6.888C263.603 7.37867 263.469 7.94933 263.469 8.6C263.469 9.26133 263.603 9.84267 263.869 10.344C264.147 10.8347 264.509 11.2133 264.957 11.48C265.416 11.736 265.912 11.864 266.445 11.864C266.989 11.864 267.485 11.736 267.933 11.48C268.392 11.2133 268.755 10.8347 269.021 10.344C269.288 9.84267 269.421 9.256 269.421 8.584ZM274.282 5.656C274.538 5.15467 274.9 4.76533 275.37 4.488C275.85 4.21067 276.431 4.072 277.114 4.072V5.576H276.73C275.098 5.576 274.282 6.46133 274.282 8.232V13H272.826V4.232H274.282V5.656ZM282.619 13.144C281.797 13.144 281.051 12.9573 280.379 12.584C279.717 12.2107 279.195 11.6827 278.811 11C278.437 10.3067 278.251 9.50667 278.251 8.6C278.251 7.704 278.443 6.91467 278.827 6.232C279.221 5.53867 279.755 5.01067 280.427 4.648C281.099 4.27467 281.851 4.088 282.683 4.088C283.515 4.088 284.267 4.27467 284.939 4.648C285.611 5.01067 286.139 5.53333 286.523 6.216C286.917 6.89867 287.115 7.69333 287.115 8.6C287.115 9.50667 286.912 10.3067 286.507 11C286.112 11.6827 285.573 12.2107 284.891 12.584C284.208 12.9573 283.451 13.144 282.619 13.144ZM282.619 11.864C283.141 11.864 283.632 11.7413 284.091 11.496C284.549 11.2507 284.917 10.8827 285.195 10.392C285.483 9.90133 285.627 9.304 285.627 8.6C285.627 7.896 285.488 7.29867 285.211 6.808C284.933 6.31733 284.571 5.95467 284.123 5.72C283.675 5.47467 283.189 5.352 282.667 5.352C282.133 5.352 281.643 5.47467 281.195 5.72C280.757 5.95467 280.405 6.31733 280.139 6.808C279.872 7.29867 279.739 7.896 279.739 8.6C279.739 9.31467 279.867 9.91733 280.123 10.408C280.389 10.8987 280.741 11.2667 281.179 11.512C281.616 11.7467 282.096 11.864 282.619 11.864ZM288.485 8.584C288.485 7.688 288.666 6.904 289.029 6.232C289.392 5.54933 289.888 5.02133 290.517 4.648C291.157 4.27467 291.872 4.088 292.661 4.088C293.344 4.088 293.978 4.248 294.565 4.568C295.152 4.87733 295.6 5.288 295.909 5.8V1.16H297.381V13H295.909V11.352C295.621 11.8747 295.194 12.3067 294.629 12.648C294.064 12.9787 293.402 13.144 292.645 13.144C291.866 13.144 291.157 12.952 290.517 12.568C289.888 12.184 289.392 11.6453 289.029 10.952C288.666 10.2587 288.485 9.46933 288.485 8.584ZM295.909 8.6C295.909 7.93867 295.776 7.36267 295.509 6.872C295.242 6.38133 294.88 6.008 294.421 5.752C293.973 5.48533 293.477 5.352 292.933 5.352C292.389 5.352 291.893 5.48 291.445 5.736C290.997 5.992 290.64 6.36533 290.373 6.856C290.106 7.34667 289.973 7.92267 289.973 8.584C289.973 9.256 290.106 9.84267 290.373 10.344C290.64 10.8347 290.997 11.2133 291.445 11.48C291.893 11.736 292.389 11.864 292.933 11.864C293.477 11.864 293.973 11.736 294.421 11.48C294.88 11.2133 295.242 10.8347 295.509 10.344C295.776 9.84267 295.909 9.26133 295.909 8.6ZM307.617 4.232V13H306.161V11.704C305.884 12.152 305.495 12.504 304.993 12.76C304.503 13.0053 303.959 13.128 303.361 13.128C302.679 13.128 302.065 12.9893 301.521 12.712C300.977 12.424 300.545 11.9973 300.225 11.432C299.916 10.8667 299.761 10.1787 299.761 9.368V4.232H301.201V9.176C301.201 10.04 301.42 10.7067 301.857 11.176C302.295 11.6347 302.892 11.864 303.649 11.864C304.428 11.864 305.041 11.624 305.489 11.144C305.937 10.664 306.161 9.96533 306.161 9.048V4.232H307.617ZM309.532 8.6C309.532 7.69333 309.713 6.904 310.076 6.232C310.438 5.54933 310.94 5.02133 311.58 4.648C312.23 4.27467 312.972 4.088 313.804 4.088C314.881 4.088 315.766 4.34933 316.46 4.872C317.164 5.39467 317.628 6.12 317.852 7.048H316.284C316.134 6.51467 315.841 6.09333 315.404 5.784C314.977 5.47467 314.444 5.32 313.804 5.32C312.972 5.32 312.3 5.608 311.788 6.184C311.276 6.74933 311.02 7.55467 311.02 8.6C311.02 9.656 311.276 10.472 311.788 11.048C312.3 11.624 312.972 11.912 313.804 11.912C314.444 11.912 314.977 11.7627 315.404 11.464C315.83 11.1653 316.124 10.7387 316.284 10.184H317.852C317.617 11.08 317.148 11.8 316.444 12.344C315.74 12.8773 314.86 13.144 313.804 13.144C312.972 13.144 312.23 12.9573 311.58 12.584C310.94 12.2107 310.438 11.6827 310.076 11C309.713 10.3173 309.532 9.51733 309.532 8.6ZM321.571 5.432V10.6C321.571 11.0267 321.661 11.3307 321.843 11.512C322.024 11.6827 322.339 11.768 322.786 11.768H323.859V13H322.547C321.736 13 321.128 12.8133 320.723 12.44C320.317 12.0667 320.115 11.4533 320.115 10.6V5.432H318.979V4.232H320.115V2.024H321.571V4.232H323.859V5.432H321.571ZM328.727 13.144C328.055 13.144 327.452 13.032 326.919 12.808C326.385 12.5733 325.964 12.2533 325.655 11.848C325.345 11.432 325.175 10.9573 325.143 10.424H326.647C326.689 10.8613 326.892 11.2187 327.255 11.496C327.628 11.7733 328.113 11.912 328.711 11.912C329.265 11.912 329.703 11.7893 330.023 11.544C330.343 11.2987 330.503 10.9893 330.503 10.616C330.503 10.232 330.332 9.94933 329.991 9.768C329.649 9.576 329.121 9.38933 328.407 9.208C327.756 9.03733 327.223 8.86667 326.807 8.696C326.401 8.51467 326.049 8.25333 325.751 7.912C325.463 7.56 325.319 7.10133 325.319 6.536C325.319 6.088 325.452 5.67733 325.719 5.304C325.985 4.93067 326.364 4.63733 326.855 4.424C327.345 4.2 327.905 4.088 328.535 4.088C329.505 4.088 330.289 4.33333 330.887 4.824C331.484 5.31467 331.804 5.98667 331.847 6.84H330.391C330.359 6.38133 330.172 6.01333 329.831 5.736C329.5 5.45867 329.052 5.32 328.487 5.32C327.964 5.32 327.548 5.432 327.239 5.656C326.929 5.88 326.775 6.17333 326.775 6.536C326.775 6.824 326.865 7.064 327.047 7.256C327.239 7.43733 327.473 7.58667 327.751 7.704C328.039 7.81067 328.433 7.93333 328.935 8.072C329.564 8.24267 330.076 8.41333 330.471 8.584C330.865 8.744 331.201 8.98933 331.479 9.32C331.767 9.65067 331.916 10.0827 331.927 10.616C331.927 11.096 331.793 11.528 331.527 11.912C331.26 12.296 330.881 12.6 330.391 12.824C329.911 13.0373 329.356 13.144 328.727 13.144ZM340.024 5.432V10.6C340.024 11.0267 340.114 11.3307 340.296 11.512C340.477 11.6827 340.792 11.768 341.24 11.768H342.312V13H341C340.189 13 339.581 12.8133 339.176 12.44C338.77 12.0667 338.568 11.4533 338.568 10.6V5.432H337.432V4.232H338.568V2.024H340.024V4.232H342.312V5.432H340.024ZM347.9 13.144C347.078 13.144 346.332 12.9573 345.66 12.584C344.998 12.2107 344.476 11.6827 344.092 11C343.718 10.3067 343.532 9.50667 343.532 8.6C343.532 7.704 343.724 6.91467 344.108 6.232C344.502 5.53867 345.036 5.01067 345.708 4.648C346.38 4.27467 347.132 4.088 347.964 4.088C348.796 4.088 349.548 4.27467 350.22 4.648C350.892 5.01067 351.42 5.53333 351.804 6.216C352.198 6.89867 352.396 7.69333 352.396 8.6C352.396 9.50667 352.193 10.3067 351.788 11C351.393 11.6827 350.854 12.2107 350.172 12.584C349.489 12.9573 348.732 13.144 347.9 13.144ZM347.9 11.864C348.422 11.864 348.913 11.7413 349.372 11.496C349.83 11.2507 350.198 10.8827 350.476 10.392C350.764 9.90133 350.908 9.304 350.908 8.6C350.908 7.896 350.769 7.29867 350.492 6.808C350.214 6.31733 349.852 5.95467 349.404 5.72C348.956 5.47467 348.47 5.352 347.948 5.352C347.414 5.352 346.924 5.47467 346.476 5.72C346.038 5.95467 345.686 6.31733 345.42 6.808C345.153 7.29867 345.02 7.896 345.02 8.6C345.02 9.31467 345.148 9.91733 345.404 10.408C345.67 10.8987 346.022 11.2667 346.46 11.512C346.897 11.7467 347.377 11.864 347.9 11.864ZM362.4 13.144C361.578 13.144 360.832 12.9573 360.16 12.584C359.498 12.2107 358.976 11.6827 358.592 11C358.218 10.3067 358.032 9.50667 358.032 8.6C358.032 7.704 358.224 6.91467 358.608 6.232C359.002 5.53867 359.536 5.01067 360.208 4.648C360.88 4.27467 361.632 4.088 362.464 4.088C363.296 4.088 364.048 4.27467 364.72 4.648C365.392 5.01067 365.92 5.53333 366.304 6.216C366.698 6.89867 366.896 7.69333 366.896 8.6C366.896 9.50667 366.693 10.3067 366.288 11C365.893 11.6827 365.354 12.2107 364.672 12.584C363.989 12.9573 363.232 13.144 362.4 13.144ZM362.4 11.864C362.922 11.864 363.413 11.7413 363.872 11.496C364.33 11.2507 364.698 10.8827 364.976 10.392C365.264 9.90133 365.408 9.304 365.408 8.6C365.408 7.896 365.269 7.29867 364.992 6.808C364.714 6.31733 364.352 5.95467 363.904 5.72C363.456 5.47467 362.97 5.352 362.448 5.352C361.914 5.352 361.424 5.47467 360.976 5.72C360.538 5.95467 360.186 6.31733 359.92 6.808C359.653 7.29867 359.52 7.896 359.52 8.6C359.52 9.31467 359.648 9.91733 359.904 10.408C360.17 10.8987 360.522 11.2667 360.96 11.512C361.397 11.7467 361.877 11.864 362.4 11.864ZM372.378 5.432H370.538V13H369.082V5.432H367.946V4.232H369.082V3.608C369.082 2.62667 369.333 1.912 369.834 1.464C370.346 1.00533 371.162 0.775999 372.282 0.775999V1.992C371.642 1.992 371.189 2.12 370.922 2.376C370.666 2.62133 370.538 3.032 370.538 3.608V4.232H372.378V5.432ZM377.644 5.432H375.804V13H374.348V5.432H373.212V4.232H374.348V3.608C374.348 2.62667 374.598 1.912 375.1 1.464C375.612 1.00533 376.428 0.775999 377.548 0.775999V1.992C376.908 1.992 376.454 2.12 376.188 2.376C375.932 2.62133 375.804 3.032 375.804 3.608V4.232H377.644V5.432ZM387.341 8.28C387.341 8.55733 387.325 8.85067 387.293 9.16H380.285C380.339 10.024 380.632 10.7013 381.165 11.192C381.709 11.672 382.365 11.912 383.133 11.912C383.763 11.912 384.285 11.768 384.701 11.48C385.128 11.1813 385.427 10.7867 385.597 10.296H387.165C386.931 11.1387 386.461 11.8267 385.757 12.36C385.053 12.8827 384.179 13.144 383.133 13.144C382.301 13.144 381.555 12.9573 380.893 12.584C380.243 12.2107 379.731 11.6827 379.357 11C378.984 10.3067 378.797 9.50667 378.797 8.6C378.797 7.69333 378.979 6.89867 379.341 6.216C379.704 5.53333 380.211 5.01067 380.861 4.648C381.523 4.27467 382.28 4.088 383.133 4.088C383.965 4.088 384.701 4.26933 385.341 4.632C385.981 4.99467 386.472 5.496 386.813 6.136C387.165 6.76533 387.341 7.48 387.341 8.28ZM385.837 7.976C385.837 7.42133 385.715 6.94667 385.469 6.552C385.224 6.14667 384.888 5.84267 384.461 5.64C384.045 5.42667 383.581 5.32 383.069 5.32C382.333 5.32 381.704 5.55467 381.181 6.024C380.669 6.49333 380.376 7.144 380.301 7.976H385.837ZM390.719 5.656C390.975 5.15467 391.338 4.76533 391.807 4.488C392.287 4.21067 392.869 4.072 393.551 4.072V5.576H393.167C391.535 5.576 390.719 6.46133 390.719 8.232V13H389.263V4.232H390.719V5.656ZM396.736 10.984L394.944 15.288H393.968L395.136 10.984H396.736ZM406.286 4.088C407.043 4.088 407.704 4.25333 408.27 4.584C408.846 4.91467 409.272 5.33067 409.55 5.832V4.232H411.022V13.192C411.022 13.992 410.851 14.7013 410.51 15.32C410.168 15.9493 409.678 16.44 409.038 16.792C408.408 17.144 407.672 17.32 406.83 17.32C405.678 17.32 404.718 17.048 403.95 16.504C403.182 15.96 402.728 15.2187 402.59 14.28H404.03C404.19 14.8133 404.52 15.24 405.022 15.56C405.523 15.8907 406.126 16.056 406.83 16.056C407.63 16.056 408.28 15.8053 408.782 15.304C409.294 14.8027 409.55 14.0987 409.55 13.192V11.352C409.262 11.864 408.835 12.2907 408.27 12.632C407.704 12.9733 407.043 13.144 406.286 13.144C405.507 13.144 404.798 12.952 404.158 12.568C403.528 12.184 403.032 11.6453 402.67 10.952C402.307 10.2587 402.126 9.46933 402.126 8.584C402.126 7.688 402.307 6.904 402.67 6.232C403.032 5.54933 403.528 5.02133 404.158 4.648C404.798 4.27467 405.507 4.088 406.286 4.088ZM409.55 8.6C409.55 7.93867 409.416 7.36267 409.15 6.872C408.883 6.38133 408.52 6.008 408.062 5.752C407.614 5.48533 407.118 5.352 406.574 5.352C406.03 5.352 405.534 5.48 405.086 5.736C404.638 5.992 404.28 6.36533 404.014 6.856C403.747 7.34667 403.614 7.92267 403.614 8.584C403.614 9.256 403.747 9.84267 404.014 10.344C404.28 10.8347 404.638 11.2133 405.086 11.48C405.534 11.736 406.03 11.864 406.574 11.864C407.118 11.864 407.614 11.736 408.062 11.48C408.52 11.2133 408.883 10.8347 409.15 10.344C409.416 9.84267 409.55 9.26133 409.55 8.6ZM414.938 5.656C415.194 5.15467 415.557 4.76533 416.026 4.488C416.506 4.21067 417.087 4.072 417.77 4.072V5.576H417.386C415.754 5.576 414.938 6.46133 414.938 8.232V13H413.482V4.232H414.938V5.656ZM423.275 13.144C422.453 13.144 421.707 12.9573 421.035 12.584C420.373 12.2107 419.851 11.6827 419.467 11C419.093 10.3067 418.907 9.50667 418.907 8.6C418.907 7.704 419.099 6.91467 419.483 6.232C419.877 5.53867 420.411 5.01067 421.083 4.648C421.755 4.27467 422.507 4.088 423.339 4.088C424.171 4.088 424.923 4.27467 425.595 4.648C426.267 5.01067 426.795 5.53333 427.179 6.216C427.573 6.89867 427.771 7.69333 427.771 8.6C427.771 9.50667 427.568 10.3067 427.163 11C426.768 11.6827 426.229 12.2107 425.547 12.584C424.864 12.9573 424.107 13.144 423.275 13.144ZM423.275 11.864C423.797 11.864 424.288 11.7413 424.747 11.496C425.205 11.2507 425.573 10.8827 425.851 10.392C426.139 9.90133 426.283 9.304 426.283 8.6C426.283 7.896 426.144 7.29867 425.867 6.808C425.589 6.31733 425.227 5.95467 424.779 5.72C424.331 5.47467 423.845 5.352 423.323 5.352C422.789 5.352 422.299 5.47467 421.851 5.72C421.413 5.95467 421.061 6.31733 420.795 6.808C420.528 7.29867 420.395 7.896 420.395 8.6C420.395 9.31467 420.523 9.91733 420.779 10.408C421.045 10.8987 421.397 11.2667 421.835 11.512C422.272 11.7467 422.752 11.864 423.275 11.864ZM441.365 4.232L438.629 13H437.125L435.013 6.04L432.901 13H431.397L428.645 4.232H430.133L432.149 11.592L434.325 4.232H435.813L437.941 11.608L439.925 4.232H441.365ZM443.562 2.808C443.285 2.808 443.05 2.712 442.858 2.52C442.666 2.328 442.57 2.09333 442.57 1.816C442.57 1.53867 442.666 1.304 442.858 1.112C443.05 0.919999 443.285 0.823999 443.562 0.823999C443.829 0.823999 444.053 0.919999 444.234 1.112C444.426 1.304 444.522 1.53867 444.522 1.816C444.522 2.09333 444.426 2.328 444.234 2.52C444.053 2.712 443.829 2.808 443.562 2.808ZM444.266 4.232V13H442.81V4.232H444.266ZM451.02 4.072C452.086 4.072 452.95 4.39733 453.612 5.048C454.273 5.688 454.604 6.616 454.604 7.832V13H453.164V8.04C453.164 7.16533 452.945 6.49867 452.508 6.04C452.07 5.57067 451.473 5.336 450.716 5.336C449.948 5.336 449.334 5.576 448.876 6.056C448.428 6.536 448.204 7.23467 448.204 8.152V13H446.748V4.232H448.204V5.48C448.492 5.032 448.881 4.68533 449.372 4.44C449.873 4.19467 450.422 4.072 451.02 4.072ZM460.598 4.088C461.355 4.088 462.017 4.25333 462.582 4.584C463.158 4.91467 463.585 5.33067 463.862 5.832V4.232H465.334V13.192C465.334 13.992 465.163 14.7013 464.822 15.32C464.481 15.9493 463.99 16.44 463.35 16.792C462.721 17.144 461.985 17.32 461.142 17.32C459.99 17.32 459.03 17.048 458.262 16.504C457.494 15.96 457.041 15.2187 456.902 14.28H458.342C458.502 14.8133 458.833 15.24 459.334 15.56C459.835 15.8907 460.438 16.056 461.142 16.056C461.942 16.056 462.593 15.8053 463.094 15.304C463.606 14.8027 463.862 14.0987 463.862 13.192V11.352C463.574 11.864 463.147 12.2907 462.582 12.632C462.017 12.9733 461.355 13.144 460.598 13.144C459.819 13.144 459.11 12.952 458.47 12.568C457.841 12.184 457.345 11.6453 456.982 10.952C456.619 10.2587 456.438 9.46933 456.438 8.584C456.438 7.688 456.619 6.904 456.982 6.232C457.345 5.54933 457.841 5.02133 458.47 4.648C459.11 4.27467 459.819 4.088 460.598 4.088ZM463.862 8.6C463.862 7.93867 463.729 7.36267 463.462 6.872C463.195 6.38133 462.833 6.008 462.374 5.752C461.926 5.48533 461.43 5.352 460.886 5.352C460.342 5.352 459.846 5.48 459.398 5.736C458.95 5.992 458.593 6.36533 458.326 6.856C458.059 7.34667 457.926 7.92267 457.926 8.584C457.926 9.256 458.059 9.84267 458.326 10.344C458.593 10.8347 458.95 11.2133 459.398 11.48C459.846 11.736 460.342 11.864 460.886 11.864C461.43 11.864 461.926 11.736 462.374 11.48C462.833 11.2133 463.195 10.8347 463.462 10.344C463.729 9.84267 463.862 9.26133 463.862 8.6ZM471.516 8.584C471.516 7.688 471.697 6.904 472.06 6.232C472.423 5.54933 472.919 5.02133 473.548 4.648C474.188 4.27467 474.897 4.088 475.676 4.088C476.444 4.088 477.111 4.25333 477.676 4.584C478.241 4.91467 478.663 5.33067 478.94 5.832V4.232H480.412V13H478.94V11.368C478.652 11.88 478.22 12.3067 477.644 12.648C477.079 12.9787 476.417 13.144 475.66 13.144C474.881 13.144 474.177 12.952 473.548 12.568C472.919 12.184 472.423 11.6453 472.06 10.952C471.697 10.2587 471.516 9.46933 471.516 8.584ZM478.94 8.6C478.94 7.93867 478.807 7.36267 478.54 6.872C478.273 6.38133 477.911 6.008 477.452 5.752C477.004 5.48533 476.508 5.352 475.964 5.352C475.42 5.352 474.924 5.48 474.476 5.736C474.028 5.992 473.671 6.36533 473.404 6.856C473.137 7.34667 473.004 7.92267 473.004 8.584C473.004 9.256 473.137 9.84267 473.404 10.344C473.671 10.8347 474.028 11.2133 474.476 11.48C474.924 11.736 475.42 11.864 475.964 11.864C476.508 11.864 477.004 11.736 477.452 11.48C477.911 11.2133 478.273 10.8347 478.54 10.344C478.807 9.84267 478.94 9.26133 478.94 8.6ZM484.649 5.432V10.6C484.649 11.0267 484.739 11.3307 484.921 11.512C485.102 11.6827 485.417 11.768 485.865 11.768H486.937V13H485.625C484.814 13 484.206 12.8133 483.801 12.44C483.395 12.0667 483.193 11.4533 483.193 10.6V5.432H482.057V4.232H483.193V2.024H484.649V4.232H486.937V5.432H484.649ZM492.422 8.584C492.422 7.688 492.604 6.904 492.966 6.232C493.329 5.54933 493.825 5.02133 494.454 4.648C495.094 4.27467 495.804 4.088 496.582 4.088C497.35 4.088 498.017 4.25333 498.582 4.584C499.148 4.91467 499.569 5.33067 499.846 5.832V4.232H501.318V13H499.846V11.368C499.558 11.88 499.126 12.3067 498.55 12.648C497.985 12.9787 497.324 13.144 496.566 13.144C495.788 13.144 495.084 12.952 494.454 12.568C493.825 12.184 493.329 11.6453 492.966 10.952C492.604 10.2587 492.422 9.46933 492.422 8.584ZM499.846 8.6C499.846 7.93867 499.713 7.36267 499.446 6.872C499.18 6.38133 498.817 6.008 498.358 5.752C497.91 5.48533 497.414 5.352 496.87 5.352C496.326 5.352 495.83 5.48 495.382 5.736C494.934 5.992 494.577 6.36533 494.31 6.856C494.044 7.34667 493.91 7.92267 493.91 8.584C493.91 9.256 494.044 9.84267 494.31 10.344C494.577 10.8347 494.934 11.2133 495.382 11.48C495.83 11.736 496.326 11.864 496.87 11.864C497.414 11.864 497.91 11.736 498.358 11.48C498.817 11.2133 499.18 10.8347 499.446 10.344C499.713 9.84267 499.846 9.26133 499.846 8.6ZM4.496 37.656L7.216 30.232H8.768L5.328 39H3.632L0.192 30.232H1.76L4.496 37.656ZM18.2008 34.28C18.2008 34.5573 18.1848 34.8507 18.1528 35.16H11.1448C11.1981 36.024 11.4914 36.7013 12.0248 37.192C12.5688 37.672 13.2248 37.912 13.9928 37.912C14.6221 37.912 15.1448 37.768 15.5608 37.48C15.9874 37.1813 16.2861 36.7867 16.4568 36.296H18.0248C17.7901 37.1387 17.3208 37.8267 16.6168 38.36C15.9128 38.8827 15.0381 39.144 13.9928 39.144C13.1608 39.144 12.4141 38.9573 11.7528 38.584C11.1021 38.2107 10.5901 37.6827 10.2168 37C9.84342 36.3067 9.65675 35.5067 9.65675 34.6C9.65675 33.6933 9.83808 32.8987 10.2008 32.216C10.5634 31.5333 11.0701 31.0107 11.7208 30.648C12.3821 30.2747 13.1394 30.088 13.9928 30.088C14.8248 30.088 15.5608 30.2693 16.2008 30.632C16.8408 30.9947 17.3314 31.496 17.6728 32.136C18.0248 32.7653 18.2008 33.48 18.2008 34.28ZM16.6968 33.976C16.6968 33.4213 16.5741 32.9467 16.3288 32.552C16.0834 32.1467 15.7474 31.8427 15.3208 31.64C14.9048 31.4267 14.4408 31.32 13.9288 31.32C13.1928 31.32 12.5634 31.5547 12.0408 32.024C11.5288 32.4933 11.2354 33.144 11.1608 33.976H16.6968ZM21.5786 31.656C21.8346 31.1547 22.1973 30.7653 22.6666 30.488C23.1466 30.2107 23.728 30.072 24.4106 30.072V31.576H24.0266C22.3946 31.576 21.5786 32.4613 21.5786 34.232V39H20.1226V30.232H21.5786V31.656ZM33.6434 30.232L28.3634 43.128H26.8594L28.5874 38.904L25.0514 30.232H26.6674L29.4194 37.336L32.1394 30.232H33.6434ZM42.9406 31.432H41.1006V39H39.6446V31.432H38.5086V30.232H39.6446V29.608C39.6446 28.6267 39.8953 27.912 40.3966 27.464C40.9086 27.0053 41.7246 26.776 42.8446 26.776V27.992C42.2046 27.992 41.7513 28.12 41.4846 28.376C41.2286 28.6213 41.1006 29.032 41.1006 29.608V30.232H42.9406V31.432ZM44.0943 34.584C44.0943 33.688 44.2756 32.904 44.6383 32.232C45.0009 31.5493 45.4969 31.0213 46.1263 30.648C46.7663 30.2747 47.4756 30.088 48.2543 30.088C49.0223 30.088 49.6889 30.2533 50.2543 30.584C50.8196 30.9147 51.2409 31.3307 51.5183 31.832V30.232H52.9903V39H51.5183V37.368C51.2303 37.88 50.7983 38.3067 50.2223 38.648C49.6569 38.9787 48.9956 39.144 48.2383 39.144C47.4596 39.144 46.7556 38.952 46.1263 38.568C45.4969 38.184 45.0009 37.6453 44.6383 36.952C44.2756 36.2587 44.0943 35.4693 44.0943 34.584ZM51.5183 34.6C51.5183 33.9387 51.3849 33.3627 51.1183 32.872C50.8516 32.3813 50.4889 32.008 50.0303 31.752C49.5823 31.4853 49.0863 31.352 48.5423 31.352C47.9983 31.352 47.5023 31.48 47.0543 31.736C46.6063 31.992 46.2489 32.3653 45.9823 32.856C45.7156 33.3467 45.5823 33.9227 45.5823 34.584C45.5823 35.256 45.7156 35.8427 45.9823 36.344C46.2489 36.8347 46.6063 37.2133 47.0543 37.48C47.5023 37.736 47.9983 37.864 48.5423 37.864C49.0863 37.864 49.5823 37.736 50.0303 37.48C50.4889 37.2133 50.8516 36.8347 51.1183 36.344C51.3849 35.8427 51.5183 35.2613 51.5183 34.6ZM58.5548 39.144C57.8828 39.144 57.2801 39.032 56.7468 38.808C56.2134 38.5733 55.7921 38.2533 55.4828 37.848C55.1734 37.432 55.0028 36.9573 54.9708 36.424H56.4748C56.5174 36.8613 56.7201 37.2187 57.0828 37.496C57.4561 37.7733 57.9414 37.912 58.5388 37.912C59.0934 37.912 59.5308 37.7893 59.8508 37.544C60.1708 37.2987 60.3308 36.9893 60.3308 36.616C60.3308 36.232 60.1601 35.9493 59.8188 35.768C59.4774 35.576 58.9494 35.3893 58.2348 35.208C57.5841 35.0373 57.0508 34.8667 56.6348 34.696C56.2294 34.5147 55.8774 34.2533 55.5788 33.912C55.2908 33.56 55.1468 33.1013 55.1468 32.536C55.1468 32.088 55.2801 31.6773 55.5468 31.304C55.8134 30.9307 56.1921 30.6373 56.6828 30.424C57.1734 30.2 57.7334 30.088 58.3628 30.088C59.3334 30.088 60.1174 30.3333 60.7148 30.824C61.3121 31.3147 61.6321 31.9867 61.6748 32.84H60.2188C60.1868 32.3813 60.0001 32.0133 59.6588 31.736C59.3281 31.4587 58.8801 31.32 58.3148 31.32C57.7921 31.32 57.3761 31.432 57.0668 31.656C56.7574 31.88 56.6028 32.1733 56.6028 32.536C56.6028 32.824 56.6934 33.064 56.8748 33.256C57.0668 33.4373 57.3014 33.5867 57.5788 33.704C57.8668 33.8107 58.2614 33.9333 58.7628 34.072C59.3921 34.2427 59.9041 34.4133 60.2988 34.584C60.6934 34.744 61.0294 34.9893 61.3068 35.32C61.5948 35.6507 61.7441 36.0827 61.7548 36.616C61.7548 37.096 61.6214 37.528 61.3548 37.912C61.0881 38.296 60.7094 38.6 60.2188 38.824C59.7388 39.0373 59.1841 39.144 58.5548 39.144ZM65.5861 31.432V36.6C65.5861 37.0267 65.6768 37.3307 65.8581 37.512C66.0395 37.6827 66.3541 37.768 66.8021 37.768H67.8741V39H66.5621C65.7515 39 65.1435 38.8133 64.7381 38.44C64.3328 38.0667 64.1301 37.4533 64.1301 36.6V31.432H62.9941V30.232H64.1301V28.024H65.5861V30.232H67.8741V31.432H65.5861ZM70.1023 39.096C69.8249 39.096 69.5903 39 69.3983 38.808C69.2063 38.616 69.1103 38.3813 69.1103 38.104C69.1103 37.8267 69.2063 37.592 69.3983 37.4C69.5903 37.208 69.8249 37.112 70.1023 37.112C70.3689 37.112 70.5929 37.208 70.7743 37.4C70.9663 37.592 71.0623 37.8267 71.0623 38.104C71.0623 38.3813 70.9663 38.616 70.7743 38.808C70.5929 39 70.3689 39.096 70.1023 39.096ZM78.7193 29.032V32.76H82.7833V33.96H78.7193V37.8H83.2633V39H77.2633V27.832H83.2633V29.032H78.7193ZM90.0424 39L87.9624 35.736L85.9624 39H84.4424L87.2744 34.648L84.4424 30.232H86.0904L88.1704 33.48L90.1544 30.232H91.6744L88.8584 34.568L91.6904 39H90.0424ZM92.5786 34.6C92.5786 33.6933 92.76 32.904 93.1226 32.232C93.4853 31.5493 93.9866 31.0213 94.6266 30.648C95.2773 30.2747 96.0186 30.088 96.8506 30.088C97.928 30.088 98.8133 30.3493 99.5066 30.872C100.211 31.3947 100.675 32.12 100.899 33.048H99.3306C99.1813 32.5147 98.888 32.0933 98.4506 31.784C98.024 31.4747 97.4906 31.32 96.8506 31.32C96.0186 31.32 95.3466 31.608 94.8346 32.184C94.3226 32.7493 94.0666 33.5547 94.0666 34.6C94.0666 35.656 94.3226 36.472 94.8346 37.048C95.3466 37.624 96.0186 37.912 96.8506 37.912C97.4906 37.912 98.024 37.7627 98.4506 37.464C98.8773 37.1653 99.1706 36.7387 99.3306 36.184H100.899C100.664 37.08 100.195 37.8 99.4906 38.344C98.7866 38.8773 97.9066 39.144 96.8506 39.144C96.0186 39.144 95.2773 38.9573 94.6266 38.584C93.9866 38.2107 93.4853 37.6827 93.1226 37C92.76 36.3173 92.5786 35.5173 92.5786 34.6ZM104.297 27.16V39H102.841V27.16H104.297ZM114.555 30.232V39H113.099V37.704C112.822 38.152 112.432 38.504 111.931 38.76C111.44 39.0053 110.896 39.128 110.299 39.128C109.616 39.128 109.003 38.9893 108.459 38.712C107.915 38.424 107.483 37.9973 107.163 37.432C106.854 36.8667 106.699 36.1787 106.699 35.368V30.232H108.139V35.176C108.139 36.04 108.358 36.7067 108.795 37.176C109.232 37.6347 109.83 37.864 110.587 37.864C111.366 37.864 111.979 37.624 112.427 37.144C112.875 36.664 113.099 35.9653 113.099 35.048V30.232H114.555ZM120.117 39.144C119.445 39.144 118.843 39.032 118.309 38.808C117.776 38.5733 117.355 38.2533 117.045 37.848C116.736 37.432 116.565 36.9573 116.533 36.424H118.037C118.08 36.8613 118.283 37.2187 118.645 37.496C119.019 37.7733 119.504 37.912 120.101 37.912C120.656 37.912 121.093 37.7893 121.413 37.544C121.733 37.2987 121.893 36.9893 121.893 36.616C121.893 36.232 121.723 35.9493 121.381 35.768C121.04 35.576 120.512 35.3893 119.797 35.208C119.147 35.0373 118.613 34.8667 118.197 34.696C117.792 34.5147 117.44 34.2533 117.141 33.912C116.853 33.56 116.709 33.1013 116.709 32.536C116.709 32.088 116.843 31.6773 117.109 31.304C117.376 30.9307 117.755 30.6373 118.245 30.424C118.736 30.2 119.296 30.088 119.925 30.088C120.896 30.088 121.68 30.3333 122.277 30.824C122.875 31.3147 123.195 31.9867 123.237 32.84H121.781C121.749 32.3813 121.563 32.0133 121.221 31.736C120.891 31.4587 120.443 31.32 119.877 31.32C119.355 31.32 118.939 31.432 118.629 31.656C118.32 31.88 118.165 32.1733 118.165 32.536C118.165 32.824 118.256 33.064 118.437 33.256C118.629 33.4373 118.864 33.5867 119.141 33.704C119.429 33.8107 119.824 33.9333 120.325 34.072C120.955 34.2427 121.467 34.4133 121.861 34.584C122.256 34.744 122.592 34.9893 122.869 35.32C123.157 35.6507 123.307 36.0827 123.317 36.616C123.317 37.096 123.184 37.528 122.917 37.912C122.651 38.296 122.272 38.6 121.781 38.824C121.301 39.0373 120.747 39.144 120.117 39.144ZM126.125 28.808C125.847 28.808 125.613 28.712 125.421 28.52C125.229 28.328 125.133 28.0933 125.133 27.816C125.133 27.5387 125.229 27.304 125.421 27.112C125.613 26.92 125.847 26.824 126.125 26.824C126.391 26.824 126.615 26.92 126.797 27.112C126.989 27.304 127.085 27.5387 127.085 27.816C127.085 28.0933 126.989 28.328 126.797 28.52C126.615 28.712 126.391 28.808 126.125 28.808ZM126.829 30.232V39H125.373V30.232H126.829ZM132.574 37.656L135.294 30.232H136.846L133.406 39H131.71L128.27 30.232H129.838L132.574 37.656ZM146.279 34.28C146.279 34.5573 146.263 34.8507 146.231 35.16H139.223C139.276 36.024 139.57 36.7013 140.103 37.192C140.647 37.672 141.303 37.912 142.071 37.912C142.7 37.912 143.223 37.768 143.639 37.48C144.066 37.1813 144.364 36.7867 144.535 36.296H146.103C145.868 37.1387 145.399 37.8267 144.695 38.36C143.991 38.8827 143.116 39.144 142.071 39.144C141.239 39.144 140.492 38.9573 139.831 38.584C139.18 38.2107 138.668 37.6827 138.295 37C137.922 36.3067 137.735 35.5067 137.735 34.6C137.735 33.6933 137.916 32.8987 138.279 32.216C138.642 31.5333 139.148 31.0107 139.799 30.648C140.46 30.2747 141.218 30.088 142.071 30.088C142.903 30.088 143.639 30.2693 144.279 30.632C144.919 30.9947 145.41 31.496 145.751 32.136C146.103 32.7653 146.279 33.48 146.279 34.28ZM144.775 33.976C144.775 33.4213 144.652 32.9467 144.407 32.552C144.162 32.1467 143.826 31.8427 143.399 31.64C142.983 31.4267 142.519 31.32 142.007 31.32C141.271 31.32 140.642 31.5547 140.119 32.024C139.607 32.4933 139.314 33.144 139.239 33.976H144.775ZM156.29 39.144C155.469 39.144 154.722 38.9573 154.05 38.584C153.389 38.2107 152.866 37.6827 152.482 37C152.109 36.3067 151.922 35.5067 151.922 34.6C151.922 33.704 152.114 32.9147 152.498 32.232C152.893 31.5387 153.426 31.0107 154.098 30.648C154.77 30.2747 155.522 30.088 156.354 30.088C157.186 30.088 157.938 30.2747 158.61 30.648C159.282 31.0107 159.81 31.5333 160.194 32.216C160.589 32.8987 160.786 33.6933 160.786 34.6C160.786 35.5067 160.584 36.3067 160.178 37C159.784 37.6827 159.245 38.2107 158.562 38.584C157.88 38.9573 157.122 39.144 156.29 39.144ZM156.29 37.864C156.813 37.864 157.304 37.7413 157.762 37.496C158.221 37.2507 158.589 36.8827 158.866 36.392C159.154 35.9013 159.298 35.304 159.298 34.6C159.298 33.896 159.16 33.2987 158.882 32.808C158.605 32.3173 158.242 31.9547 157.794 31.72C157.346 31.4747 156.861 31.352 156.338 31.352C155.805 31.352 155.314 31.4747 154.866 31.72C154.429 31.9547 154.077 32.3173 153.81 32.808C153.544 33.2987 153.41 33.896 153.41 34.6C153.41 35.3147 153.538 35.9173 153.794 36.408C154.061 36.8987 154.413 37.2667 154.85 37.512C155.288 37.7467 155.768 37.864 156.29 37.864ZM166.269 31.432H164.429V39H162.973V31.432H161.837V30.232H162.973V29.608C162.973 28.6267 163.223 27.912 163.725 27.464C164.237 27.0053 165.053 26.776 166.173 26.776V27.992C165.533 27.992 165.079 28.12 164.813 28.376C164.557 28.6213 164.429 29.032 164.429 29.608V30.232H166.269V31.432ZM171.534 31.432H169.694V39H168.238V31.432H167.102V30.232H168.238V29.608C168.238 28.6267 168.489 27.912 168.99 27.464C169.502 27.0053 170.318 26.776 171.438 26.776V27.992C170.798 27.992 170.345 28.12 170.078 28.376C169.822 28.6213 169.694 29.032 169.694 29.608V30.232H171.534V31.432ZM181.232 34.28C181.232 34.5573 181.216 34.8507 181.184 35.16H174.176C174.229 36.024 174.523 36.7013 175.056 37.192C175.6 37.672 176.256 37.912 177.024 37.912C177.653 37.912 178.176 37.768 178.592 37.48C179.019 37.1813 179.317 36.7867 179.488 36.296H181.056C180.821 37.1387 180.352 37.8267 179.648 38.36C178.944 38.8827 178.069 39.144 177.024 39.144C176.192 39.144 175.445 38.9573 174.784 38.584C174.133 38.2107 173.621 37.6827 173.248 37C172.875 36.3067 172.688 35.5067 172.688 34.6C172.688 33.6933 172.869 32.8987 173.232 32.216C173.595 31.5333 174.101 31.0107 174.752 30.648C175.413 30.2747 176.171 30.088 177.024 30.088C177.856 30.088 178.592 30.2693 179.232 30.632C179.872 30.9947 180.363 31.496 180.704 32.136C181.056 32.7653 181.232 33.48 181.232 34.28ZM179.728 33.976C179.728 33.4213 179.605 32.9467 179.36 32.552C179.115 32.1467 178.779 31.8427 178.352 31.64C177.936 31.4267 177.472 31.32 176.96 31.32C176.224 31.32 175.595 31.5547 175.072 32.024C174.56 32.4933 174.267 33.144 174.192 33.976H179.728ZM184.61 31.656C184.866 31.1547 185.229 30.7653 185.698 30.488C186.178 30.2107 186.759 30.072 187.442 30.072V31.576H187.058C185.426 31.576 184.61 32.4613 184.61 34.232V39H183.154V30.232H184.61V31.656ZM192.227 39.144C191.555 39.144 190.952 39.032 190.419 38.808C189.885 38.5733 189.464 38.2533 189.155 37.848C188.845 37.432 188.675 36.9573 188.643 36.424H190.147C190.189 36.8613 190.392 37.2187 190.755 37.496C191.128 37.7733 191.613 37.912 192.211 37.912C192.765 37.912 193.203 37.7893 193.523 37.544C193.843 37.2987 194.003 36.9893 194.003 36.616C194.003 36.232 193.832 35.9493 193.491 35.768C193.149 35.576 192.621 35.3893 191.907 35.208C191.256 35.0373 190.723 34.8667 190.307 34.696C189.901 34.5147 189.549 34.2533 189.251 33.912C188.963 33.56 188.819 33.1013 188.819 32.536C188.819 32.088 188.952 31.6773 189.219 31.304C189.485 30.9307 189.864 30.6373 190.355 30.424C190.845 30.2 191.405 30.088 192.035 30.088C193.005 30.088 193.789 30.3333 194.387 30.824C194.984 31.3147 195.304 31.9867 195.347 32.84H193.891C193.859 32.3813 193.672 32.0133 193.331 31.736C193 31.4587 192.552 31.32 191.987 31.32C191.464 31.32 191.048 31.432 190.739 31.656C190.429 31.88 190.275 32.1733 190.275 32.536C190.275 32.824 190.365 33.064 190.547 33.256C190.739 33.4373 190.973 33.5867 191.251 33.704C191.539 33.8107 191.933 33.9333 192.435 34.072C193.064 34.2427 193.576 34.4133 193.971 34.584C194.365 34.744 194.701 34.9893 194.979 35.32C195.267 35.6507 195.416 36.0827 195.427 36.616C195.427 37.096 195.293 37.528 195.027 37.912C194.76 38.296 194.381 38.6 193.891 38.824C193.411 39.0373 192.856 39.144 192.227 39.144ZM201.204 34.584C201.204 33.688 201.385 32.904 201.748 32.232C202.11 31.5493 202.606 31.0213 203.236 30.648C203.876 30.2747 204.585 30.088 205.364 30.088C206.132 30.088 206.798 30.2533 207.364 30.584C207.929 30.9147 208.35 31.3307 208.628 31.832V30.232H210.1V39H208.628V37.368C208.34 37.88 207.908 38.3067 207.332 38.648C206.766 38.9787 206.105 39.144 205.348 39.144C204.569 39.144 203.865 38.952 203.236 38.568C202.606 38.184 202.11 37.6453 201.748 36.952C201.385 36.2587 201.204 35.4693 201.204 34.584ZM208.628 34.6C208.628 33.9387 208.494 33.3627 208.228 32.872C207.961 32.3813 207.598 32.008 207.14 31.752C206.692 31.4853 206.196 31.352 205.652 31.352C205.108 31.352 204.612 31.48 204.164 31.736C203.716 31.992 203.358 32.3653 203.092 32.856C202.825 33.3467 202.692 33.9227 202.692 34.584C202.692 35.256 202.825 35.8427 203.092 36.344C203.358 36.8347 203.716 37.2133 204.164 37.48C204.612 37.736 205.108 37.864 205.652 37.864C206.196 37.864 206.692 37.736 207.14 37.48C207.598 37.2133 207.961 36.8347 208.228 36.344C208.494 35.8427 208.628 35.2613 208.628 34.6ZM216.282 34.584C216.282 33.688 216.463 32.904 216.826 32.232C217.188 31.5493 217.684 31.0213 218.314 30.648C218.954 30.2747 219.668 30.088 220.458 30.088C221.14 30.088 221.775 30.248 222.362 30.568C222.948 30.8773 223.396 31.288 223.706 31.8V27.16H225.178V39H223.706V37.352C223.418 37.8747 222.991 38.3067 222.426 38.648C221.86 38.9787 221.199 39.144 220.442 39.144C219.663 39.144 218.954 38.952 218.314 38.568C217.684 38.184 217.188 37.6453 216.826 36.952C216.463 36.2587 216.282 35.4693 216.282 34.584ZM223.706 34.6C223.706 33.9387 223.572 33.3627 223.306 32.872C223.039 32.3813 222.676 32.008 222.218 31.752C221.77 31.4853 221.274 31.352 220.73 31.352C220.186 31.352 219.69 31.48 219.242 31.736C218.794 31.992 218.436 32.3653 218.17 32.856C217.903 33.3467 217.77 33.9227 217.77 34.584C217.77 35.256 217.903 35.8427 218.17 36.344C218.436 36.8347 218.794 37.2133 219.242 37.48C219.69 37.736 220.186 37.864 220.73 37.864C221.274 37.864 221.77 37.736 222.218 37.48C222.676 37.2133 223.039 36.8347 223.306 36.344C223.572 35.8427 223.706 35.2613 223.706 34.6ZM228.39 28.808C228.113 28.808 227.878 28.712 227.686 28.52C227.494 28.328 227.398 28.0933 227.398 27.816C227.398 27.5387 227.494 27.304 227.686 27.112C227.878 26.92 228.113 26.824 228.39 26.824C228.657 26.824 228.881 26.92 229.062 27.112C229.254 27.304 229.35 27.5387 229.35 27.816C229.35 28.0933 229.254 28.328 229.062 28.52C228.881 28.712 228.657 28.808 228.39 28.808ZM229.094 30.232V39H227.638V30.232H229.094ZM234.84 37.656L237.56 30.232H239.112L235.672 39H233.976L230.536 30.232H232.104L234.84 37.656ZM248.545 34.28C248.545 34.5573 248.529 34.8507 248.497 35.16H241.489C241.542 36.024 241.835 36.7013 242.369 37.192C242.913 37.672 243.569 37.912 244.337 37.912C244.966 37.912 245.489 37.768 245.905 37.48C246.331 37.1813 246.63 36.7867 246.801 36.296H248.369C248.134 37.1387 247.665 37.8267 246.961 38.36C246.257 38.8827 245.382 39.144 244.337 39.144C243.505 39.144 242.758 38.9573 242.097 38.584C241.446 38.2107 240.934 37.6827 240.561 37C240.187 36.3067 240.001 35.5067 240.001 34.6C240.001 33.6933 240.182 32.8987 240.545 32.216C240.907 31.5333 241.414 31.0107 242.065 30.648C242.726 30.2747 243.483 30.088 244.337 30.088C245.169 30.088 245.905 30.2693 246.545 30.632C247.185 30.9947 247.675 31.496 248.017 32.136C248.369 32.7653 248.545 33.48 248.545 34.28ZM247.041 33.976C247.041 33.4213 246.918 32.9467 246.673 32.552C246.427 32.1467 246.091 31.8427 245.665 31.64C245.249 31.4267 244.785 31.32 244.273 31.32C243.537 31.32 242.907 31.5547 242.385 32.024C241.873 32.4933 241.579 33.144 241.505 33.976H247.041ZM251.922 31.656C252.178 31.1547 252.541 30.7653 253.01 30.488C253.49 30.2107 254.072 30.072 254.754 30.072V31.576H254.37C252.738 31.576 251.922 32.4613 251.922 34.232V39H250.466V30.232H251.922V31.656ZM259.539 39.144C258.867 39.144 258.264 39.032 257.731 38.808C257.198 38.5733 256.776 38.2533 256.467 37.848C256.158 37.432 255.987 36.9573 255.955 36.424H257.459C257.502 36.8613 257.704 37.2187 258.067 37.496C258.44 37.7733 258.926 37.912 259.523 37.912C260.078 37.912 260.515 37.7893 260.835 37.544C261.155 37.2987 261.315 36.9893 261.315 36.616C261.315 36.232 261.144 35.9493 260.803 35.768C260.462 35.576 259.934 35.3893 259.219 35.208C258.568 35.0373 258.035 34.8667 257.619 34.696C257.214 34.5147 256.862 34.2533 256.563 33.912C256.275 33.56 256.131 33.1013 256.131 32.536C256.131 32.088 256.264 31.6773 256.531 31.304C256.798 30.9307 257.176 30.6373 257.667 30.424C258.158 30.2 258.718 30.088 259.347 30.088C260.318 30.088 261.102 30.3333 261.699 30.824C262.296 31.3147 262.616 31.9867 262.659 32.84H261.203C261.171 32.3813 260.984 32.0133 260.643 31.736C260.312 31.4587 259.864 31.32 259.299 31.32C258.776 31.32 258.36 31.432 258.051 31.656C257.742 31.88 257.587 32.1733 257.587 32.536C257.587 32.824 257.678 33.064 257.859 33.256C258.051 33.4373 258.286 33.5867 258.563 33.704C258.851 33.8107 259.246 33.9333 259.747 34.072C260.376 34.2427 260.888 34.4133 261.283 34.584C261.678 34.744 262.014 34.9893 262.291 35.32C262.579 35.6507 262.728 36.0827 262.739 36.616C262.739 37.096 262.606 37.528 262.339 37.912C262.072 38.296 261.694 38.6 261.203 38.824C260.723 39.0373 260.168 39.144 259.539 39.144ZM272.795 34.28C272.795 34.5573 272.779 34.8507 272.747 35.16H265.739C265.792 36.024 266.085 36.7013 266.619 37.192C267.163 37.672 267.819 37.912 268.587 37.912C269.216 37.912 269.739 37.768 270.155 37.48C270.581 37.1813 270.88 36.7867 271.051 36.296H272.619C272.384 37.1387 271.915 37.8267 271.211 38.36C270.507 38.8827 269.632 39.144 268.587 39.144C267.755 39.144 267.008 38.9573 266.347 38.584C265.696 38.2107 265.184 37.6827 264.811 37C264.437 36.3067 264.251 35.5067 264.251 34.6C264.251 33.6933 264.432 32.8987 264.795 32.216C265.157 31.5333 265.664 31.0107 266.315 30.648C266.976 30.2747 267.733 30.088 268.587 30.088C269.419 30.088 270.155 30.2693 270.795 30.632C271.435 30.9947 271.925 31.496 272.267 32.136C272.619 32.7653 272.795 33.48 272.795 34.28ZM271.291 33.976C271.291 33.4213 271.168 32.9467 270.923 32.552C270.677 32.1467 270.341 31.8427 269.915 31.64C269.499 31.4267 269.035 31.32 268.523 31.32C267.787 31.32 267.157 31.5547 266.635 32.024C266.123 32.4933 265.829 33.144 265.755 33.976H271.291ZM278.438 34.584C278.438 33.688 278.619 32.904 278.982 32.232C279.345 31.5493 279.841 31.0213 280.47 30.648C281.11 30.2747 281.819 30.088 282.598 30.088C283.366 30.088 284.033 30.2533 284.598 30.584C285.163 30.9147 285.585 31.3307 285.862 31.832V30.232H287.334V39H285.862V37.368C285.574 37.88 285.142 38.3067 284.566 38.648C284.001 38.9787 283.339 39.144 282.582 39.144C281.803 39.144 281.099 38.952 280.47 38.568C279.841 38.184 279.345 37.6453 278.982 36.952C278.619 36.2587 278.438 35.4693 278.438 34.584ZM285.862 34.6C285.862 33.9387 285.729 33.3627 285.462 32.872C285.195 32.3813 284.833 32.008 284.374 31.752C283.926 31.4853 283.43 31.352 282.886 31.352C282.342 31.352 281.846 31.48 281.398 31.736C280.95 31.992 280.593 32.3653 280.326 32.856C280.059 33.3467 279.926 33.9227 279.926 34.584C279.926 35.256 280.059 35.8427 280.326 36.344C280.593 36.8347 280.95 37.2133 281.398 37.48C281.846 37.736 282.342 37.864 282.886 37.864C283.43 37.864 283.926 37.736 284.374 37.48C284.833 37.2133 285.195 36.8347 285.462 36.344C285.729 35.8427 285.862 35.2613 285.862 34.6ZM292.899 39.144C292.227 39.144 291.624 39.032 291.091 38.808C290.557 38.5733 290.136 38.2533 289.827 37.848C289.517 37.432 289.347 36.9573 289.315 36.424H290.819C290.861 36.8613 291.064 37.2187 291.427 37.496C291.8 37.7733 292.285 37.912 292.883 37.912C293.437 37.912 293.875 37.7893 294.195 37.544C294.515 37.2987 294.675 36.9893 294.675 36.616C294.675 36.232 294.504 35.9493 294.163 35.768C293.821 35.576 293.293 35.3893 292.579 35.208C291.928 35.0373 291.395 34.8667 290.979 34.696C290.573 34.5147 290.221 34.2533 289.923 33.912C289.635 33.56 289.491 33.1013 289.491 32.536C289.491 32.088 289.624 31.6773 289.891 31.304C290.157 30.9307 290.536 30.6373 291.027 30.424C291.517 30.2 292.077 30.088 292.707 30.088C293.677 30.088 294.461 30.3333 295.059 30.824C295.656 31.3147 295.976 31.9867 296.019 32.84H294.563C294.531 32.3813 294.344 32.0133 294.003 31.736C293.672 31.4587 293.224 31.32 292.659 31.32C292.136 31.32 291.72 31.432 291.411 31.656C291.101 31.88 290.947 32.1733 290.947 32.536C290.947 32.824 291.037 33.064 291.219 33.256C291.411 33.4373 291.645 33.5867 291.923 33.704C292.211 33.8107 292.605 33.9333 293.107 34.072C293.736 34.2427 294.248 34.4133 294.643 34.584C295.037 34.744 295.373 34.9893 295.651 35.32C295.939 35.6507 296.088 36.0827 296.099 36.616C296.099 37.096 295.965 37.528 295.699 37.912C295.432 38.296 295.053 38.6 294.563 38.824C294.083 39.0373 293.528 39.144 292.899 39.144ZM301.258 39.144C300.586 39.144 299.983 39.032 299.45 38.808C298.917 38.5733 298.495 38.2533 298.186 37.848C297.877 37.432 297.706 36.9573 297.674 36.424H299.178C299.221 36.8613 299.423 37.2187 299.786 37.496C300.159 37.7733 300.645 37.912 301.242 37.912C301.797 37.912 302.234 37.7893 302.554 37.544C302.874 37.2987 303.034 36.9893 303.034 36.616C303.034 36.232 302.863 35.9493 302.522 35.768C302.181 35.576 301.653 35.3893 300.938 35.208C300.287 35.0373 299.754 34.8667 299.338 34.696C298.933 34.5147 298.581 34.2533 298.282 33.912C297.994 33.56 297.85 33.1013 297.85 32.536C297.85 32.088 297.983 31.6773 298.25 31.304C298.517 30.9307 298.895 30.6373 299.386 30.424C299.877 30.2 300.437 30.088 301.066 30.088C302.037 30.088 302.821 30.3333 303.418 30.824C304.015 31.3147 304.335 31.9867 304.378 32.84H302.922C302.89 32.3813 302.703 32.0133 302.362 31.736C302.031 31.4587 301.583 31.32 301.018 31.32C300.495 31.32 300.079 31.432 299.77 31.656C299.461 31.88 299.306 32.1733 299.306 32.536C299.306 32.824 299.397 33.064 299.578 33.256C299.77 33.4373 300.005 33.5867 300.282 33.704C300.57 33.8107 300.965 33.9333 301.466 34.072C302.095 34.2427 302.607 34.4133 303.002 34.584C303.397 34.744 303.733 34.9893 304.01 35.32C304.298 35.6507 304.447 36.0827 304.458 36.616C304.458 37.096 304.325 37.528 304.058 37.912C303.791 38.296 303.413 38.6 302.922 38.824C302.442 39.0373 301.887 39.144 301.258 39.144ZM310.337 39.144C309.516 39.144 308.769 38.9573 308.097 38.584C307.436 38.2107 306.913 37.6827 306.529 37C306.156 36.3067 305.969 35.5067 305.969 34.6C305.969 33.704 306.161 32.9147 306.545 32.232C306.94 31.5387 307.473 31.0107 308.145 30.648C308.817 30.2747 309.569 30.088 310.401 30.088C311.233 30.088 311.985 30.2747 312.657 30.648C313.329 31.0107 313.857 31.5333 314.241 32.216C314.636 32.8987 314.833 33.6933 314.833 34.6C314.833 35.5067 314.631 36.3067 314.225 37C313.831 37.6827 313.292 38.2107 312.609 38.584C311.927 38.9573 311.169 39.144 310.337 39.144ZM310.337 37.864C310.86 37.864 311.351 37.7413 311.809 37.496C312.268 37.2507 312.636 36.8827 312.913 36.392C313.201 35.9013 313.345 35.304 313.345 34.6C313.345 33.896 313.207 33.2987 312.929 32.808C312.652 32.3173 312.289 31.9547 311.841 31.72C311.393 31.4747 310.908 31.352 310.385 31.352C309.852 31.352 309.361 31.4747 308.913 31.72C308.476 31.9547 308.124 32.3173 307.857 32.808C307.591 33.2987 307.457 33.896 307.457 34.6C307.457 35.3147 307.585 35.9173 307.841 36.408C308.108 36.8987 308.46 37.2667 308.897 37.512C309.335 37.7467 309.815 37.864 310.337 37.864ZM318.524 31.432V36.6C318.524 37.0267 318.614 37.3307 318.796 37.512C318.977 37.6827 319.292 37.768 319.74 37.768H320.812V39H319.5C318.689 39 318.081 38.8133 317.676 38.44C317.27 38.0667 317.068 37.4533 317.068 36.6V31.432H315.932V30.232H317.068V28.024H318.524V30.232H320.812V31.432H318.524ZM333.12 30.072C333.802 30.072 334.41 30.216 334.944 30.504C335.477 30.7813 335.898 31.2027 336.208 31.768C336.517 32.3333 336.672 33.0213 336.672 33.832V39H335.232V34.04C335.232 33.1653 335.013 32.4987 334.576 32.04C334.149 31.5707 333.568 31.336 332.832 31.336C332.074 31.336 331.472 31.5813 331.024 32.072C330.576 32.552 330.352 33.2507 330.352 34.168V39H328.912V34.04C328.912 33.1653 328.693 32.4987 328.256 32.04C327.829 31.5707 327.248 31.336 326.512 31.336C325.754 31.336 325.152 31.5813 324.704 32.072C324.256 32.552 324.032 33.2507 324.032 34.168V39H322.576V30.232H324.032V31.496C324.32 31.0373 324.704 30.6853 325.184 30.44C325.674 30.1947 326.213 30.072 326.8 30.072C327.536 30.072 328.186 30.2373 328.752 30.568C329.317 30.8987 329.738 31.384 330.016 32.024C330.261 31.4053 330.666 30.9253 331.232 30.584C331.797 30.2427 332.426 30.072 333.12 30.072ZM347.06 34.28C347.06 34.5573 347.044 34.8507 347.012 35.16H340.004C340.057 36.024 340.351 36.7013 340.884 37.192C341.428 37.672 342.084 37.912 342.852 37.912C343.481 37.912 344.004 37.768 344.42 37.48C344.847 37.1813 345.145 36.7867 345.316 36.296H346.884C346.649 37.1387 346.18 37.8267 345.476 38.36C344.772 38.8827 343.897 39.144 342.852 39.144C342.02 39.144 341.273 38.9573 340.612 38.584C339.961 38.2107 339.449 37.6827 339.076 37C338.703 36.3067 338.516 35.5067 338.516 34.6C338.516 33.6933 338.697 32.8987 339.06 32.216C339.423 31.5333 339.929 31.0107 340.58 30.648C341.241 30.2747 341.999 30.088 342.852 30.088C343.684 30.088 344.42 30.2693 345.06 30.632C345.7 30.9947 346.191 31.496 346.532 32.136C346.884 32.7653 347.06 33.48 347.06 34.28ZM345.556 33.976C345.556 33.4213 345.433 32.9467 345.188 32.552C344.943 32.1467 344.607 31.8427 344.18 31.64C343.764 31.4267 343.3 31.32 342.788 31.32C342.052 31.32 341.423 31.5547 340.9 32.024C340.388 32.4933 340.095 33.144 340.02 33.976H345.556ZM353.254 30.072C354.321 30.072 355.185 30.3973 355.846 31.048C356.507 31.688 356.838 32.616 356.838 33.832V39H355.398V34.04C355.398 33.1653 355.179 32.4987 354.742 32.04C354.305 31.5707 353.707 31.336 352.95 31.336C352.182 31.336 351.569 31.576 351.11 32.056C350.662 32.536 350.438 33.2347 350.438 34.152V39H348.982V30.232H350.438V31.48C350.726 31.032 351.115 30.6853 351.606 30.44C352.107 30.1947 352.657 30.072 353.254 30.072ZM360.992 31.432V36.6C360.992 37.0267 361.083 37.3307 361.264 37.512C361.446 37.6827 361.76 37.768 362.208 37.768H363.28V39H361.968C361.158 39 360.55 38.8133 360.144 38.44C359.739 38.0667 359.536 37.4533 359.536 36.6V31.432H358.4V30.232H359.536V28.024H360.992V30.232H363.28V31.432H360.992ZM370.062 28.808C369.785 28.808 369.55 28.712 369.358 28.52C369.166 28.328 369.07 28.0933 369.07 27.816C369.07 27.5387 369.166 27.304 369.358 27.112C369.55 26.92 369.785 26.824 370.062 26.824C370.329 26.824 370.553 26.92 370.734 27.112C370.926 27.304 371.022 27.5387 371.022 27.816C371.022 28.0933 370.926 28.328 370.734 28.52C370.553 28.712 370.329 28.808 370.062 28.808ZM370.766 30.232V39H369.31V30.232H370.766ZM377.52 30.072C378.586 30.072 379.45 30.3973 380.112 31.048C380.773 31.688 381.104 32.616 381.104 33.832V39H379.664V34.04C379.664 33.1653 379.445 32.4987 379.008 32.04C378.57 31.5707 377.973 31.336 377.216 31.336C376.448 31.336 375.834 31.576 375.376 32.056C374.928 32.536 374.704 33.2347 374.704 34.152V39H373.248V30.232H374.704V31.48C374.992 31.032 375.381 30.6853 375.872 30.44C376.373 30.1947 376.922 30.072 377.52 30.072ZM387.204 34.6C387.204 33.6933 387.385 32.904 387.748 32.232C388.11 31.5493 388.612 31.0213 389.252 30.648C389.902 30.2747 390.644 30.088 391.476 30.088C392.553 30.088 393.438 30.3493 394.132 30.872C394.836 31.3947 395.3 32.12 395.524 33.048H393.956C393.806 32.5147 393.513 32.0933 393.076 31.784C392.649 31.4747 392.116 31.32 391.476 31.32C390.644 31.32 389.972 31.608 389.46 32.184C388.948 32.7493 388.692 33.5547 388.692 34.6C388.692 35.656 388.948 36.472 389.46 37.048C389.972 37.624 390.644 37.912 391.476 37.912C392.116 37.912 392.649 37.7627 393.076 37.464C393.502 37.1653 393.796 36.7387 393.956 36.184H395.524C395.289 37.08 394.82 37.8 394.116 38.344C393.412 38.8773 392.532 39.144 391.476 39.144C390.644 39.144 389.902 38.9573 389.252 38.584C388.612 38.2107 388.11 37.6827 387.748 37C387.385 36.3173 387.204 35.5173 387.204 34.6ZM396.922 34.584C396.922 33.688 397.104 32.904 397.466 32.232C397.829 31.5493 398.325 31.0213 398.954 30.648C399.594 30.2747 400.304 30.088 401.082 30.088C401.85 30.088 402.517 30.2533 403.082 30.584C403.648 30.9147 404.069 31.3307 404.346 31.832V30.232H405.818V39H404.346V37.368C404.058 37.88 403.626 38.3067 403.05 38.648C402.485 38.9787 401.824 39.144 401.066 39.144C400.288 39.144 399.584 38.952 398.954 38.568C398.325 38.184 397.829 37.6453 397.466 36.952C397.104 36.2587 396.922 35.4693 396.922 34.584ZM404.346 34.6C404.346 33.9387 404.213 33.3627 403.946 32.872C403.68 32.3813 403.317 32.008 402.858 31.752C402.41 31.4853 401.914 31.352 401.37 31.352C400.826 31.352 400.33 31.48 399.882 31.736C399.434 31.992 399.077 32.3653 398.81 32.856C398.544 33.3467 398.41 33.9227 398.41 34.584C398.41 35.256 398.544 35.8427 398.81 36.344C399.077 36.8347 399.434 37.2133 399.882 37.48C400.33 37.736 400.826 37.864 401.37 37.864C401.914 37.864 402.41 37.736 402.858 37.48C403.317 37.2133 403.68 36.8347 403.946 36.344C404.213 35.8427 404.346 35.2613 404.346 34.6ZM410.055 31.432V36.6C410.055 37.0267 410.146 37.3307 410.327 37.512C410.508 37.6827 410.823 37.768 411.271 37.768H412.343V39H411.031C410.22 39 409.612 38.8133 409.207 38.44C408.802 38.0667 408.599 37.4533 408.599 36.6V31.432H407.463V30.232H408.599V28.024H410.055V30.232H412.343V31.432H410.055ZM422.107 34.28C422.107 34.5573 422.091 34.8507 422.059 35.16H415.051C415.104 36.024 415.398 36.7013 415.931 37.192C416.475 37.672 417.131 37.912 417.899 37.912C418.528 37.912 419.051 37.768 419.467 37.48C419.894 37.1813 420.192 36.7867 420.363 36.296H421.931C421.696 37.1387 421.227 37.8267 420.523 38.36C419.819 38.8827 418.944 39.144 417.899 39.144C417.067 39.144 416.32 38.9573 415.659 38.584C415.008 38.2107 414.496 37.6827 414.123 37C413.75 36.3067 413.563 35.5067 413.563 34.6C413.563 33.6933 413.744 32.8987 414.107 32.216C414.47 31.5333 414.976 31.0107 415.627 30.648C416.288 30.2747 417.046 30.088 417.899 30.088C418.731 30.088 419.467 30.2693 420.107 30.632C420.747 30.9947 421.238 31.496 421.579 32.136C421.931 32.7653 422.107 33.48 422.107 34.28ZM420.603 33.976C420.603 33.4213 420.48 32.9467 420.235 32.552C419.99 32.1467 419.654 31.8427 419.227 31.64C418.811 31.4267 418.347 31.32 417.835 31.32C417.099 31.32 416.47 31.5547 415.947 32.024C415.435 32.4933 415.142 33.144 415.067 33.976H420.603ZM427.645 30.088C428.402 30.088 429.064 30.2533 429.629 30.584C430.205 30.9147 430.632 31.3307 430.909 31.832V30.232H432.381V39.192C432.381 39.992 432.21 40.7013 431.869 41.32C431.528 41.9493 431.037 42.44 430.397 42.792C429.768 43.144 429.032 43.32 428.189 43.32C427.037 43.32 426.077 43.048 425.309 42.504C424.541 41.96 424.088 41.2187 423.949 40.28H425.389C425.549 40.8133 425.88 41.24 426.381 41.56C426.882 41.8907 427.485 42.056 428.189 42.056C428.989 42.056 429.64 41.8053 430.141 41.304C430.653 40.8027 430.909 40.0987 430.909 39.192V37.352C430.621 37.864 430.194 38.2907 429.629 38.632C429.064 38.9733 428.402 39.144 427.645 39.144C426.866 39.144 426.157 38.952 425.517 38.568C424.888 38.184 424.392 37.6453 424.029 36.952C423.666 36.2587 423.485 35.4693 423.485 34.584C423.485 33.688 423.666 32.904 424.029 32.232C424.392 31.5493 424.888 31.0213 425.517 30.648C426.157 30.2747 426.866 30.088 427.645 30.088ZM430.909 34.6C430.909 33.9387 430.776 33.3627 430.509 32.872C430.242 32.3813 429.88 32.008 429.421 31.752C428.973 31.4853 428.477 31.352 427.933 31.352C427.389 31.352 426.893 31.48 426.445 31.736C425.997 31.992 425.64 32.3653 425.373 32.856C425.106 33.3467 424.973 33.9227 424.973 34.584C424.973 35.256 425.106 35.8427 425.373 36.344C425.64 36.8347 425.997 37.2133 426.445 37.48C426.893 37.736 427.389 37.864 427.933 37.864C428.477 37.864 428.973 37.736 429.421 37.48C429.88 37.2133 430.242 36.8347 430.509 36.344C430.776 35.8427 430.909 35.2613 430.909 34.6ZM438.665 39.144C437.844 39.144 437.097 38.9573 436.425 38.584C435.764 38.2107 435.241 37.6827 434.857 37C434.484 36.3067 434.297 35.5067 434.297 34.6C434.297 33.704 434.489 32.9147 434.873 32.232C435.268 31.5387 435.801 31.0107 436.473 30.648C437.145 30.2747 437.897 30.088 438.729 30.088C439.561 30.088 440.313 30.2747 440.985 30.648C441.657 31.0107 442.185 31.5333 442.569 32.216C442.964 32.8987 443.161 33.6933 443.161 34.6C443.161 35.5067 442.959 36.3067 442.553 37C442.159 37.6827 441.62 38.2107 440.937 38.584C440.255 38.9573 439.497 39.144 438.665 39.144ZM438.665 37.864C439.188 37.864 439.679 37.7413 440.137 37.496C440.596 37.2507 440.964 36.8827 441.241 36.392C441.529 35.9013 441.673 35.304 441.673 34.6C441.673 33.896 441.535 33.2987 441.257 32.808C440.98 32.3173 440.617 31.9547 440.169 31.72C439.721 31.4747 439.236 31.352 438.713 31.352C438.18 31.352 437.689 31.4747 437.241 31.72C436.804 31.9547 436.452 32.3173 436.185 32.808C435.919 33.2987 435.785 33.896 435.785 34.6C435.785 35.3147 435.913 35.9173 436.169 36.408C436.436 36.8987 436.788 37.2667 437.225 37.512C437.663 37.7467 438.143 37.864 438.665 37.864ZM446.532 31.656C446.788 31.1547 447.15 30.7653 447.62 30.488C448.1 30.2107 448.681 30.072 449.364 30.072V31.576H448.98C447.348 31.576 446.532 32.4613 446.532 34.232V39H445.076V30.232H446.532V31.656ZM451.797 28.808C451.519 28.808 451.285 28.712 451.093 28.52C450.901 28.328 450.805 28.0933 450.805 27.816C450.805 27.5387 450.901 27.304 451.093 27.112C451.285 26.92 451.519 26.824 451.797 26.824C452.063 26.824 452.287 26.92 452.469 27.112C452.661 27.304 452.757 27.5387 452.757 27.816C452.757 28.0933 452.661 28.328 452.469 28.52C452.287 28.712 452.063 28.808 451.797 28.808ZM452.501 30.232V39H451.045V30.232H452.501ZM462.982 34.28C462.982 34.5573 462.966 34.8507 462.934 35.16H455.926C455.979 36.024 456.273 36.7013 456.806 37.192C457.35 37.672 458.006 37.912 458.774 37.912C459.403 37.912 459.926 37.768 460.342 37.48C460.769 37.1813 461.067 36.7867 461.238 36.296H462.806C462.571 37.1387 462.102 37.8267 461.398 38.36C460.694 38.8827 459.819 39.144 458.774 39.144C457.942 39.144 457.195 38.9573 456.534 38.584C455.883 38.2107 455.371 37.6827 454.998 37C454.625 36.3067 454.438 35.5067 454.438 34.6C454.438 33.6933 454.619 32.8987 454.982 32.216C455.345 31.5333 455.851 31.0107 456.502 30.648C457.163 30.2747 457.921 30.088 458.774 30.088C459.606 30.088 460.342 30.2693 460.982 30.632C461.622 30.9947 462.113 31.496 462.454 32.136C462.806 32.7653 462.982 33.48 462.982 34.28ZM461.478 33.976C461.478 33.4213 461.355 32.9467 461.11 32.552C460.865 32.1467 460.529 31.8427 460.102 31.64C459.686 31.4267 459.222 31.32 458.71 31.32C457.974 31.32 457.345 31.5547 456.822 32.024C456.31 32.4933 456.017 33.144 455.942 33.976H461.478ZM468.008 39.144C467.336 39.144 466.733 39.032 466.2 38.808C465.667 38.5733 465.245 38.2533 464.936 37.848C464.627 37.432 464.456 36.9573 464.424 36.424H465.928C465.971 36.8613 466.173 37.2187 466.536 37.496C466.909 37.7733 467.395 37.912 467.992 37.912C468.547 37.912 468.984 37.7893 469.304 37.544C469.624 37.2987 469.784 36.9893 469.784 36.616C469.784 36.232 469.613 35.9493 469.272 35.768C468.931 35.576 468.403 35.3893 467.688 35.208C467.037 35.0373 466.504 34.8667 466.088 34.696C465.683 34.5147 465.331 34.2533 465.032 33.912C464.744 33.56 464.6 33.1013 464.6 32.536C464.6 32.088 464.733 31.6773 465 31.304C465.267 30.9307 465.645 30.6373 466.136 30.424C466.627 30.2 467.187 30.088 467.816 30.088C468.787 30.088 469.571 30.3333 470.168 30.824C470.765 31.3147 471.085 31.9867 471.128 32.84H469.672C469.64 32.3813 469.453 32.0133 469.112 31.736C468.781 31.4587 468.333 31.32 467.768 31.32C467.245 31.32 466.829 31.432 466.52 31.656C466.211 31.88 466.056 32.1733 466.056 32.536C466.056 32.824 466.147 33.064 466.328 33.256C466.52 33.4373 466.755 33.5867 467.032 33.704C467.32 33.8107 467.715 33.9333 468.216 34.072C468.845 34.2427 469.357 34.4133 469.752 34.584C470.147 34.744 470.483 34.9893 470.76 35.32C471.048 35.6507 471.197 36.0827 471.208 36.616C471.208 37.096 471.075 37.528 470.808 37.912C470.541 38.296 470.163 38.6 469.672 38.824C469.192 39.0373 468.637 39.144 468.008 39.144ZM2.688 57.656C2.944 57.1547 3.30667 56.7653 3.776 56.488C4.256 56.2107 4.83733 56.072 5.52 56.072V57.576H5.136C3.504 57.576 2.688 58.4613 2.688 60.232V65H1.232V56.232H2.688V57.656ZM6.65675 60.584C6.65675 59.688 6.83808 58.904 7.20075 58.232C7.56342 57.5493 8.05942 57.0213 8.68875 56.648C9.32875 56.2747 10.0381 56.088 10.8168 56.088C11.5848 56.088 12.2514 56.2533 12.8168 56.584C13.3821 56.9147 13.8034 57.3307 14.0808 57.832V56.232H15.5528V65H14.0808V63.368C13.7928 63.88 13.3608 64.3067 12.7848 64.648C12.2194 64.9787 11.5581 65.144 10.8008 65.144C10.0221 65.144 9.31808 64.952 8.68875 64.568C8.05942 64.184 7.56342 63.6453 7.20075 62.952C6.83808 62.2587 6.65675 61.4693 6.65675 60.584ZM14.0808 60.6C14.0808 59.9387 13.9474 59.3627 13.6808 58.872C13.4141 58.3813 13.0514 58.008 12.5928 57.752C12.1448 57.4853 11.6488 57.352 11.1048 57.352C10.5608 57.352 10.0648 57.48 9.61675 57.736C9.16875 57.992 8.81142 58.3653 8.54475 58.856C8.27808 59.3467 8.14475 59.9227 8.14475 60.584C8.14475 61.256 8.27808 61.8427 8.54475 62.344C8.81142 62.8347 9.16875 63.2133 9.61675 63.48C10.0648 63.736 10.5608 63.864 11.1048 63.864C11.6488 63.864 12.1448 63.736 12.5928 63.48C13.0514 63.2133 13.4141 62.8347 13.6808 62.344C13.9474 61.8427 14.0808 61.2613 14.0808 60.6ZM22.2853 56.072C23.3519 56.072 24.2159 56.3973 24.8773 57.048C25.5386 57.688 25.8693 58.616 25.8693 59.832V65H24.4293V60.04C24.4293 59.1653 24.2106 58.4987 23.7733 58.04C23.3359 57.5707 22.7386 57.336 21.9813 57.336C21.2133 57.336 20.5999 57.576 20.1413 58.056C19.6933 58.536 19.4693 59.2347 19.4693 60.152V65H18.0133V56.232H19.4693V57.48C19.7573 57.032 20.1466 56.6853 20.6373 56.44C21.1386 56.1947 21.6879 56.072 22.2853 56.072ZM31.8636 56.088C32.621 56.088 33.2823 56.2533 33.8476 56.584C34.4236 56.9147 34.8503 57.3307 35.1276 57.832V56.232H36.5996V65.192C36.5996 65.992 36.429 66.7013 36.0876 67.32C35.7463 67.9493 35.2556 68.44 34.6156 68.792C33.9863 69.144 33.2503 69.32 32.4076 69.32C31.2556 69.32 30.2956 69.048 29.5276 68.504C28.7596 67.96 28.3063 67.2187 28.1676 66.28H29.6076C29.7676 66.8133 30.0983 67.24 30.5996 67.56C31.101 67.8907 31.7036 68.056 32.4076 68.056C33.2076 68.056 33.8583 67.8053 34.3596 67.304C34.8716 66.8027 35.1276 66.0987 35.1276 65.192V63.352C34.8396 63.864 34.413 64.2907 33.8476 64.632C33.2823 64.9733 32.621 65.144 31.8636 65.144C31.085 65.144 30.3756 64.952 29.7356 64.568C29.1063 64.184 28.6103 63.6453 28.2476 62.952C27.885 62.2587 27.7036 61.4693 27.7036 60.584C27.7036 59.688 27.885 58.904 28.2476 58.232C28.6103 57.5493 29.1063 57.0213 29.7356 56.648C30.3756 56.2747 31.085 56.088 31.8636 56.088ZM35.1276 60.6C35.1276 59.9387 34.9943 59.3627 34.7276 58.872C34.461 58.3813 34.0983 58.008 33.6396 57.752C33.1916 57.4853 32.6956 57.352 32.1516 57.352C31.6076 57.352 31.1116 57.48 30.6636 57.736C30.2156 57.992 29.8583 58.3653 29.5916 58.856C29.325 59.3467 29.1916 59.9227 29.1916 60.584C29.1916 61.256 29.325 61.8427 29.5916 62.344C29.8583 62.8347 30.2156 63.2133 30.6636 63.48C31.1116 63.736 31.6076 63.864 32.1516 63.864C32.6956 63.864 33.1916 63.736 33.6396 63.48C34.0983 63.2133 34.461 62.8347 34.7276 62.344C34.9943 61.8427 35.1276 61.2613 35.1276 60.6ZM39.8121 54.808C39.5348 54.808 39.3001 54.712 39.1081 54.52C38.9161 54.328 38.8201 54.0933 38.8201 53.816C38.8201 53.5387 38.9161 53.304 39.1081 53.112C39.3001 52.92 39.5348 52.824 39.8121 52.824C40.0788 52.824 40.3028 52.92 40.4841 53.112C40.6761 53.304 40.7721 53.5387 40.7721 53.816C40.7721 54.0933 40.6761 54.328 40.4841 54.52C40.3028 54.712 40.0788 54.808 39.8121 54.808ZM40.5161 56.232V65H39.0601V56.232H40.5161ZM47.2696 56.072C48.3363 56.072 49.2003 56.3973 49.8616 57.048C50.523 57.688 50.8536 58.616 50.8536 59.832V65H49.4136V60.04C49.4136 59.1653 49.195 58.4987 48.7576 58.04C48.3203 57.5707 47.723 57.336 46.9656 57.336C46.1976 57.336 45.5843 57.576 45.1256 58.056C44.6776 58.536 44.4536 59.2347 44.4536 60.152V65H42.9976V56.232H44.4536V57.48C44.7416 57.032 45.131 56.6853 45.6216 56.44C46.123 56.1947 46.6723 56.072 47.2696 56.072ZM56.848 56.088C57.6053 56.088 58.2667 56.2533 58.832 56.584C59.408 56.9147 59.8347 57.3307 60.112 57.832V56.232H61.584V65.192C61.584 65.992 61.4133 66.7013 61.072 67.32C60.7307 67.9493 60.24 68.44 59.6 68.792C58.9707 69.144 58.2347 69.32 57.392 69.32C56.24 69.32 55.28 69.048 54.512 68.504C53.744 67.96 53.2907 67.2187 53.152 66.28H54.592C54.752 66.8133 55.0827 67.24 55.584 67.56C56.0853 67.8907 56.688 68.056 57.392 68.056C58.192 68.056 58.8427 67.8053 59.344 67.304C59.856 66.8027 60.112 66.0987 60.112 65.192V63.352C59.824 63.864 59.3973 64.2907 58.832 64.632C58.2667 64.9733 57.6053 65.144 56.848 65.144C56.0693 65.144 55.36 64.952 54.72 64.568C54.0907 64.184 53.5947 63.6453 53.232 62.952C52.8693 62.2587 52.688 61.4693 52.688 60.584C52.688 59.688 52.8693 58.904 53.232 58.232C53.5947 57.5493 54.0907 57.0213 54.72 56.648C55.36 56.2747 56.0693 56.088 56.848 56.088ZM60.112 60.6C60.112 59.9387 59.9787 59.3627 59.712 58.872C59.4453 58.3813 59.0827 58.008 58.624 57.752C58.176 57.4853 57.68 57.352 57.136 57.352C56.592 57.352 56.096 57.48 55.648 57.736C55.2 57.992 54.8427 58.3653 54.576 58.856C54.3093 59.3467 54.176 59.9227 54.176 60.584C54.176 61.256 54.3093 61.8427 54.576 62.344C54.8427 62.8347 55.2 63.2133 55.648 63.48C56.096 63.736 56.592 63.864 57.136 63.864C57.68 63.864 58.176 63.736 58.624 63.48C59.0827 63.2133 59.4453 62.8347 59.712 62.344C59.9787 61.8427 60.112 61.2613 60.112 60.6ZM76.1438 57.432H74.3038V65H72.8478V57.432H71.7118V56.232H72.8478V55.608C72.8478 54.6267 73.0984 53.912 73.5998 53.464C74.1118 53.0053 74.9278 52.776 76.0477 52.776V53.992C75.4078 53.992 74.9544 54.12 74.6878 54.376C74.4318 54.6213 74.3038 55.032 74.3038 55.608V56.232H76.1438V57.432ZM79.2974 57.656C79.5534 57.1547 79.916 56.7653 80.3854 56.488C80.8654 56.2107 81.4467 56.072 82.1294 56.072V57.576H81.7454C80.1134 57.576 79.2974 58.4613 79.2974 60.232V65H77.8414V56.232H79.2974V57.656ZM87.6341 65.144C86.8128 65.144 86.0661 64.9573 85.3941 64.584C84.7328 64.2107 84.2101 63.6827 83.8261 63C83.4528 62.3067 83.2661 61.5067 83.2661 60.6C83.2661 59.704 83.4581 58.9147 83.8421 58.232C84.2368 57.5387 84.7701 57.0107 85.4421 56.648C86.1141 56.2747 86.8661 56.088 87.6981 56.088C88.5301 56.088 89.2821 56.2747 89.9541 56.648C90.6261 57.0107 91.1541 57.5333 91.5381 58.216C91.9328 58.8987 92.1301 59.6933 92.1301 60.6C92.1301 61.5067 91.9275 62.3067 91.5221 63C91.1275 63.6827 90.5888 64.2107 89.9061 64.584C89.2235 64.9573 88.4661 65.144 87.6341 65.144ZM87.6341 63.864C88.1568 63.864 88.6475 63.7413 89.1061 63.496C89.5648 63.2507 89.9328 62.8827 90.2101 62.392C90.4981 61.9013 90.6421 61.304 90.6421 60.6C90.6421 59.896 90.5035 59.2987 90.2261 58.808C89.9488 58.3173 89.5861 57.9547 89.1381 57.72C88.6901 57.4747 88.2048 57.352 87.6821 57.352C87.1488 57.352 86.6581 57.4747 86.2101 57.72C85.7728 57.9547 85.4208 58.3173 85.1541 58.808C84.8875 59.2987 84.7541 59.896 84.7541 60.6C84.7541 61.3147 84.8821 61.9173 85.1381 62.408C85.4048 62.8987 85.7568 63.2667 86.1941 63.512C86.6315 63.7467 87.1115 63.864 87.6341 63.864ZM104.589 56.072C105.271 56.072 105.879 56.216 106.413 56.504C106.946 56.7813 107.367 57.2027 107.677 57.768C107.986 58.3333 108.141 59.0213 108.141 59.832V65H106.701V60.04C106.701 59.1653 106.482 58.4987 106.045 58.04C105.618 57.5707 105.037 57.336 104.301 57.336C103.543 57.336 102.941 57.5813 102.493 58.072C102.045 58.552 101.821 59.2507 101.821 60.168V65H100.381V60.04C100.381 59.1653 100.162 58.4987 99.7245 58.04C99.2978 57.5707 98.7165 57.336 97.9805 57.336C97.2232 57.336 96.6205 57.5813 96.1725 58.072C95.7245 58.552 95.5005 59.2507 95.5005 60.168V65H94.0445V56.232H95.5005V57.496C95.7885 57.0373 96.1725 56.6853 96.6525 56.44C97.1432 56.1947 97.6818 56.072 98.2685 56.072C99.0045 56.072 99.6552 56.2373 100.221 56.568C100.786 56.8987 101.207 57.384 101.485 58.024C101.73 57.4053 102.135 56.9253 102.701 56.584C103.266 56.2427 103.895 56.072 104.589 56.072ZM114.251 60.6C114.251 59.6933 114.432 58.904 114.795 58.232C115.157 57.5493 115.659 57.0213 116.299 56.648C116.949 56.2747 117.691 56.088 118.523 56.088C119.6 56.088 120.485 56.3493 121.179 56.872C121.883 57.3947 122.347 58.12 122.571 59.048H121.003C120.853 58.5147 120.56 58.0933 120.123 57.784C119.696 57.4747 119.163 57.32 118.523 57.32C117.691 57.32 117.019 57.608 116.507 58.184C115.995 58.7493 115.739 59.5547 115.739 60.6C115.739 61.656 115.995 62.472 116.507 63.048C117.019 63.624 117.691 63.912 118.523 63.912C119.163 63.912 119.696 63.7627 120.123 63.464C120.549 63.1653 120.843 62.7387 121.003 62.184H122.571C122.336 63.08 121.867 63.8 121.163 64.344C120.459 64.8773 119.579 65.144 118.523 65.144C117.691 65.144 116.949 64.9573 116.299 64.584C115.659 64.2107 115.157 63.6827 114.795 63C114.432 62.3173 114.251 61.5173 114.251 60.6ZM128.337 65.144C127.516 65.144 126.769 64.9573 126.097 64.584C125.436 64.2107 124.913 63.6827 124.529 63C124.156 62.3067 123.969 61.5067 123.969 60.6C123.969 59.704 124.161 58.9147 124.545 58.232C124.94 57.5387 125.473 57.0107 126.145 56.648C126.817 56.2747 127.569 56.088 128.401 56.088C129.233 56.088 129.985 56.2747 130.657 56.648C131.329 57.0107 131.857 57.5333 132.241 58.216C132.636 58.8987 132.833 59.6933 132.833 60.6C132.833 61.5067 132.631 62.3067 132.225 63C131.831 63.6827 131.292 64.2107 130.609 64.584C129.927 64.9573 129.169 65.144 128.337 65.144ZM128.337 63.864C128.86 63.864 129.351 63.7413 129.809 63.496C130.268 63.2507 130.636 62.8827 130.913 62.392C131.201 61.9013 131.345 61.304 131.345 60.6C131.345 59.896 131.207 59.2987 130.929 58.808C130.652 58.3173 130.289 57.9547 129.841 57.72C129.393 57.4747 128.908 57.352 128.385 57.352C127.852 57.352 127.361 57.4747 126.913 57.72C126.476 57.9547 126.124 58.3173 125.857 58.808C125.591 59.2987 125.457 59.896 125.457 60.6C125.457 61.3147 125.585 61.9173 125.841 62.408C126.108 62.8987 126.46 63.2667 126.897 63.512C127.335 63.7467 127.815 63.864 128.337 63.864ZM139.02 56.072C140.086 56.072 140.95 56.3973 141.612 57.048C142.273 57.688 142.604 58.616 142.604 59.832V65H141.164V60.04C141.164 59.1653 140.945 58.4987 140.508 58.04C140.07 57.5707 139.473 57.336 138.716 57.336C137.948 57.336 137.334 57.576 136.876 58.056C136.428 58.536 136.204 59.2347 136.204 60.152V65H134.748V56.232H136.204V57.48C136.492 57.032 136.881 56.6853 137.372 56.44C137.873 56.1947 138.422 56.072 139.02 56.072ZM148.086 65.144C147.414 65.144 146.811 65.032 146.278 64.808C145.745 64.5733 145.323 64.2533 145.014 63.848C144.705 63.432 144.534 62.9573 144.502 62.424H146.006C146.049 62.8613 146.251 63.2187 146.614 63.496C146.987 63.7733 147.473 63.912 148.07 63.912C148.625 63.912 149.062 63.7893 149.382 63.544C149.702 63.2987 149.862 62.9893 149.862 62.616C149.862 62.232 149.691 61.9493 149.35 61.768C149.009 61.576 148.481 61.3893 147.766 61.208C147.115 61.0373 146.582 60.8667 146.166 60.696C145.761 60.5147 145.409 60.2533 145.11 59.912C144.822 59.56 144.678 59.1013 144.678 58.536C144.678 58.088 144.811 57.6773 145.078 57.304C145.345 56.9307 145.723 56.6373 146.214 56.424C146.705 56.2 147.265 56.088 147.894 56.088C148.865 56.088 149.649 56.3333 150.246 56.824C150.843 57.3147 151.163 57.9867 151.206 58.84H149.75C149.718 58.3813 149.531 58.0133 149.19 57.736C148.859 57.4587 148.411 57.32 147.846 57.32C147.323 57.32 146.907 57.432 146.598 57.656C146.289 57.88 146.134 58.1733 146.134 58.536C146.134 58.824 146.225 59.064 146.406 59.256C146.598 59.4373 146.833 59.5867 147.11 59.704C147.398 59.8107 147.793 59.9333 148.294 60.072C148.923 60.2427 149.435 60.4133 149.83 60.584C150.225 60.744 150.561 60.9893 150.838 61.32C151.126 61.6507 151.275 62.0827 151.286 62.616C151.286 63.096 151.153 63.528 150.886 63.912C150.619 64.296 150.241 64.6 149.75 64.824C149.27 65.0373 148.715 65.144 148.086 65.144ZM161.117 56.232V65H159.661V63.704C159.384 64.152 158.995 64.504 158.493 64.76C158.003 65.0053 157.459 65.128 156.861 65.128C156.179 65.128 155.565 64.9893 155.021 64.712C154.477 64.424 154.045 63.9973 153.725 63.432C153.416 62.8667 153.261 62.1787 153.261 61.368V56.232H154.701V61.176C154.701 62.04 154.92 62.7067 155.357 63.176C155.795 63.6347 156.392 63.864 157.149 63.864C157.928 63.864 158.541 63.624 158.989 63.144C159.437 62.664 159.661 61.9653 159.661 61.048V56.232H161.117ZM174.12 56.072C174.802 56.072 175.41 56.216 175.944 56.504C176.477 56.7813 176.898 57.2027 177.208 57.768C177.517 58.3333 177.672 59.0213 177.672 59.832V65H176.232V60.04C176.232 59.1653 176.013 58.4987 175.576 58.04C175.149 57.5707 174.568 57.336 173.832 57.336C173.074 57.336 172.472 57.5813 172.024 58.072C171.576 58.552 171.352 59.2507 171.352 60.168V65H169.912V60.04C169.912 59.1653 169.693 58.4987 169.256 58.04C168.829 57.5707 168.248 57.336 167.512 57.336C166.754 57.336 166.152 57.5813 165.704 58.072C165.256 58.552 165.032 59.2507 165.032 60.168V65H163.576V56.232H165.032V57.496C165.32 57.0373 165.704 56.6853 166.184 56.44C166.674 56.1947 167.213 56.072 167.8 56.072C168.536 56.072 169.186 56.2373 169.752 56.568C170.317 56.8987 170.738 57.384 171.016 58.024C171.261 57.4053 171.666 56.9253 172.232 56.584C172.797 56.2427 173.426 56.072 174.12 56.072ZM188.06 60.28C188.06 60.5573 188.044 60.8507 188.012 61.16H181.004C181.057 62.024 181.351 62.7013 181.884 63.192C182.428 63.672 183.084 63.912 183.852 63.912C184.481 63.912 185.004 63.768 185.42 63.48C185.847 63.1813 186.145 62.7867 186.316 62.296H187.884C187.649 63.1387 187.18 63.8267 186.476 64.36C185.772 64.8827 184.897 65.144 183.852 65.144C183.02 65.144 182.273 64.9573 181.612 64.584C180.961 64.2107 180.449 63.6827 180.076 63C179.703 62.3067 179.516 61.5067 179.516 60.6C179.516 59.6933 179.697 58.8987 180.06 58.216C180.423 57.5333 180.929 57.0107 181.58 56.648C182.241 56.2747 182.999 56.088 183.852 56.088C184.684 56.088 185.42 56.2693 186.06 56.632C186.7 56.9947 187.191 57.496 187.532 58.136C187.884 58.7653 188.06 59.48 188.06 60.28ZM186.556 59.976C186.556 59.4213 186.433 58.9467 186.188 58.552C185.943 58.1467 185.607 57.8427 185.18 57.64C184.764 57.4267 184.3 57.32 183.788 57.32C183.052 57.32 182.423 57.5547 181.9 58.024C181.388 58.4933 181.095 59.144 181.02 59.976H186.556ZM191.438 57.656C191.694 57.1547 192.057 56.7653 192.526 56.488C193.006 56.2107 193.587 56.072 194.27 56.072V57.576H193.886C192.254 57.576 191.438 58.4613 191.438 60.232V65H189.982V56.232H191.438V57.656ZM196.415 65.096C196.137 65.096 195.903 65 195.711 64.808C195.519 64.616 195.423 64.3813 195.423 64.104C195.423 63.8267 195.519 63.592 195.711 63.4C195.903 63.208 196.137 63.112 196.415 63.112C196.681 63.112 196.905 63.208 197.087 63.4C197.279 63.592 197.375 63.8267 197.375 64.104C197.375 64.3813 197.279 64.616 197.087 64.808C196.905 65 196.681 65.096 196.415 65.096Z" fill="black"/>
</svg>
