<svg xmlns="http://www.w3.org/2000/svg" version="1.1" xmlns:xlink="http://www.w3.org/1999/xlink" xmlns:svgjs="http://svgjs.dev/svgjs" width="1500" height="1647" viewBox="0 0 1500 1647"><g transform="matrix(1,0,0,1,-0.6303494404741059,0)"><svg viewBox="0 0 255 280" data-background-color="#eeeeee" preserveAspectRatio="xMidYMid meet" height="1647" width="1500" xmlns="http://www.w3.org/2000/svg" xmlns:xlink="http://www.w3.org/1999/xlink"><g id="tight-bounds" transform="matrix(1,0,0,1,0.10715940488060482,0)"><svg viewBox="0 0 254.7856811902388 280" height="280" width="254.7856811902388"><g><svg viewBox="0 0 278.2696 305.8079544973466" height="280" width="254.7856811902388"><g><svg viewBox="0 0 278.2696 305.8079544973466" height="305.8079544973466" width="278.2696"><g id="textblocktransform"><svg viewBox="0 0 278.2696 305.8079544973466" height="305.8079544973466" width="278.2696" id="textblock"><g><svg viewBox="0 0 278.2696 278.2696" height="278.2696" width="278.2696"><g transform="matrix(1,0,0,1,96.87055619780773,89.94321971048298)"><svg viewBox="0 0 84.52848760438458 98.38316057903407" height="98.38316057903407" width="84.52848760438458"><g id="icon-0"><svg xmlns="http://www.w3.org/2000/svg" xmlns:xlink="http://www.w3.org/1999/xlink" version="1.1" x="0" y="0" viewBox="14.449998112299529 39.891674402597886 82.14183800632283 95.6053262972834" enable-background="new 0 38.5 100 100" xml:space="preserve" height="98.38316057903407" width="84.52848760438458" class="icon-jxe-0" data-fill-palette-color="accent" id="jxe-0"><path d="M43.517 78.828C41.529 79.091 40.04 78.798 39.093 77.958 37.968 76.96 37.965 75.461 37.964 75.431A0.72 0.72 0 0 0 37.261 74.7C37.255 74.698 37.248 74.699 37.242 74.699A0.72 0.72 0 0 0 36.526 75.403C36.524 75.49 36.497 77.566 38.12 79.02 39.12 79.916 40.492 80.365 42.214 80.361 42.685 80.359 43.183 80.325 43.705 80.255A0.72 0.72 0 0 0 43.517 78.828" fill="#db3e25" data-fill-palette-color="accent"></path><path d="M96.429 56.969C94.525 57.763 89.892 55.014 89.338 54.819 87.161 54.146 82.458 38.398 68.653 40.007 57.066 41.358 51.346 46.501 49.807 48.119A22 22 0 0 0 46.913 47.935 21.59 21.59 0 0 0 28.282 58.635C27.625 58.186 26.905 57.954 26.155 57.956 23.337 57.963 21.138 61.253 21.148 65.447 21.157 69.314 23.043 72.405 25.545 72.856 27.133 83.435 36.224 91.294 47.018 91.268 55.46 91.247 63.005 86.409 66.565 78.839A3.6 3.6 0 0 0 68.232 79.253C70.964 79.246 73.096 76.123 73.086 72.145S70.929 65.055 68.197 65.062H68.151A21.55 21.55 0 0 0 59.74 52.073C63.903 53.692 68.713 55.855 72.962 58.517 83.148 64.894 98.331 56.176 96.429 56.969M66.437 66.319L66.623 67.428 67.689 67.07C67.863 67.011 68.037 66.982 68.204 66.981 69.804 66.978 71.16 69.344 71.167 72.15S69.828 77.328 68.229 77.333C67.75 77.333 67.281 77.113 66.833 76.678L65.81 75.68 65.274 77.005A19.68 19.68 0 0 1 47.016 89.347C36.928 89.371 28.473 81.84 27.349 71.827L27.245 70.899 26.314 70.977 26.188 70.991C24.505 70.996 23.077 68.454 23.071 65.44 23.063 62.427 24.478 59.878 26.161 59.875 26.881 59.873 27.459 60.367 27.817 60.781L28.748 61.858 29.398 60.592A19.8 19.8 0 0 1 32.978 55.675C39.298 56.279 58.345 58.558 65.035 64.554 62.273 59.16 60.511 55.742 58.309 53.409A19.66 19.66 0 0 1 66.437 66.319" fill="#db3e25" data-fill-palette-color="accent"></path><path d="M46.649 65.146C51.276 78.003 60.444 68.023 61.656 63.118 58.754 66.188 46.649 65.146 46.649 65.146" fill="#db3e25" data-fill-palette-color="accent"></path><path d="M31.631 63.111C32.868 68.009 42.084 77.945 46.65 65.065 46.649 65.065 34.549 66.168 31.631 63.111" fill="#db3e25" data-fill-palette-color="accent"></path><path d="M35.95 105.15L29.871 105.166 29.869 104.225H29.905C31.552 104.221 32.889 102.751 32.885 100.948A3.47 3.47 0 0 0 32.354 99.104C32.694 98.562 32.877 97.92 32.876 97.257A3.47 3.47 0 0 0 32.345 95.412 3.47 3.47 0 0 0 32.867 93.566 3.46 3.46 0 0 0 32.335 91.72 3.45 3.45 0 0 0 32.857 89.873C32.853 88.193 31.68 86.823 30.189 86.646A5.7 5.7 0 0 0 29.46 83.924C28.858 82.883 28.012 82.257 27.046 82.157 26.185 82.097 25.382 82.406 24.696 83.051 24.679 83.068 24.665 83.086 24.648 83.101 24.083 83.653 23.602 84.46 23.191 85.446 23.035 85.817 22.89 86.212 22.755 86.628L22.245 86.63C21.76 86.63 21.275 86.768 20.838 87.026A7.7 7.7 0 0 0 18.442 88.36 8 8 0 0 0 17.735 89.009 8 8 0 0 0 17.028 89.867 8.17 8.17 0 0 0 15.515 94.65L15.519 96.253A8.17 8.17 0 0 0 17.054 101.026C17.271 101.327 17.507 101.614 17.765 101.88 17.986 102.11 18.225 102.324 18.475 102.526A7.7 7.7 0 0 0 20.795 103.821C20.792 104.412 20.795 104.844 20.797 105.066L20.799 105.185 18.481 105.19 17.772 105.192 17.064 105.194 15.511 105.198A1.063 1.063 0 0 0 14.45 106.263L14.516 134.083 14.517 134.437C14.518 134.562 14.543 134.68 14.584 134.792A1.06 1.06 0 0 0 15.584 135.497L18.554 135.49 36.019 135.448A1.065 1.065 0 0 0 37.08 134.382L37.012 106.208A1.06 1.06 0 0 0 35.95 105.15M25.885 84.905A3 3 0 0 1 26.153 84.601C26.481 84.292 26.718 84.267 26.861 84.277 27.086 84.299 27.382 84.58 27.62 84.99A3.45 3.45 0 0 1 28.076 86.617L24.988 86.624C25.156 86.176 25.335 85.779 25.527 85.441 25.64 85.238 25.761 85.063 25.885 84.905M24.31 88.945L29.389 88.933 29.502 88.984 29.524 88.932H29.867C30.229 88.932 30.536 89.365 30.537 89.879 30.537 90.244 30.375 90.584 30.121 90.744A1.15 1.15 0 0 0 29.58 91.726C29.581 92.128 29.785 92.495 30.125 92.708 30.379 92.865 30.544 93.204 30.545 93.57 30.545 93.934 30.383 94.273 30.128 94.433 29.79 94.648 29.587 95.015 29.588 95.416S29.793 96.185 30.133 96.397C30.387 96.556 30.551 96.893 30.552 97.259 30.553 97.623 30.391 97.963 30.136 98.123A1.158 1.158 0 0 0 30.14 100.087C30.394 100.245 30.559 100.583 30.56 100.948 30.561 101.463 30.256 101.899 29.894 101.899L22.948 101.917C23.06 97.67 23.469 92.584 24.31 88.945M22.925 104.242L27.743 104.23 27.745 105.17 22.928 105.181 22.926 105.044C22.923 104.788 22.925 104.511 22.925 104.242M18.469 98.842A5.8 5.8 0 0 1 17.842 96.248L17.839 94.646A5.9 5.9 0 0 1 18.453 92.019C19.114 90.687 20.265 89.641 21.686 89.191A1.2 1.2 0 0 0 21.986 89.046 0.6 0.6 0 0 1 22.13 88.973C21.244 92.982 20.942 97.933 20.843 101.317 19.814 100.775 18.994 99.896 18.469 98.842M34.954 133.327L18.552 133.366 17.844 133.368 17.135 133.37 16.646 133.371 16.583 107.323 17.073 107.322 17.531 107.321C17.61 107.355 17.699 107.391 17.781 107.425 18.003 107.519 18.239 107.613 18.491 107.706 21.697 108.906 27.243 110.018 33.889 107.281L34.892 107.28z" fill="#db3e25" data-fill-palette-color="accent"></path><path d="M79.697 105.12L74.409 105.133 74.41 105.015C74.412 104.804 74.412 104.4 74.408 103.857 77.554 102.753 79.655 99.721 79.647 96.263L79.642 94.661C79.634 91.173 77.484 88.127 74.285 87.061A2.8 2.8 0 0 0 72.877 86.671L72.397 86.672C71.877 85.08 71.229 83.78 70.41 83.018 69.721 82.374 68.91 82.07 68.023 82.138 67.089 82.239 66.246 82.868 65.649 83.913 65.22 84.662 64.903 85.725 64.93 86.726 63.44 86.912 62.277 88.287 62.281 89.965 62.282 90.628 62.469 91.27 62.812 91.81 62.471 92.352 62.288 92.995 62.29 93.657S62.478 94.961 62.821 95.501A3.47 3.47 0 0 0 62.299 97.349C62.301 98.012 62.487 98.653 62.829 99.193A3.46 3.46 0 0 0 62.308 101.04C62.312 102.843 63.657 104.307 65.304 104.303H65.339L65.341 105.155 59.263 105.17A1.065 1.065 0 0 0 58.202 106.236L58.27 134.409A1.063 1.063 0 0 0 59.335 135.47L79.771 135.421A1.064 1.064 0 0 0 80.832 134.356L80.765 106.182A1.067 1.067 0 0 0 79.697 105.12M73.149 89.087C73.242 89.149 73.342 89.197 73.448 89.231 75.724 89.938 77.316 92.173 77.322 94.668L77.326 96.27C77.331 98.428 76.144 100.394 74.354 101.35 74.243 97.995 73.923 93.045 73.03 89.027A0.6 0.6 0 0 1 73.149 89.087M67.494 84.969C67.729 84.558 68.025 84.277 68.217 84.255 68.39 84.238 68.63 84.268 68.958 84.573 69.415 84.999 69.816 85.73 70.169 86.678L67.047 86.686C67.027 86.207 67.168 85.54 67.494 84.969M65.298 101.982C64.936 101.983 64.629 101.548 64.627 101.034 64.626 100.669 64.789 100.331 65.043 100.17 65.382 99.956 65.584 99.588 65.583 99.187A1.15 1.15 0 0 0 65.037 98.207C64.783 98.048 64.619 97.71 64.618 97.345S64.78 96.641 65.033 96.481C65.372 96.267 65.574 95.9 65.573 95.497A1.16 1.16 0 0 0 65.028 94.516C64.774 94.358 64.61 94.02 64.609 93.656 64.608 93.291 64.77 92.951 65.024 92.792A1.157 1.157 0 0 0 65.019 90.827C64.765 90.669 64.601 90.33 64.6 89.965 64.598 89.451 64.904 89.016 65.266 89.015L70.846 89.001C71.696 92.653 72.122 97.736 72.245 101.97zM67.464 104.298L72.285 104.286C72.286 104.529 72.285 104.768 72.284 105.001L72.283 105.138 67.467 105.15zM78.702 133.297L60.392 133.341 60.33 107.293 61.333 107.291C68.709 110.285 74.722 108.567 77.69 107.251L78.639 107.249z" fill="#db3e25" data-fill-palette-color="accent"></path></svg></g></svg></g><g id="text-0"><path d="M12.082 90.175c0.625-1.74 1.503-3.126 2.633-4.16 1.124-1.036 2.406-1.674 3.848-1.914 1.439-0.235 2.931-0.074 4.475 0.481v0c0.528 0.19 1.149 0.484 1.863 0.883v0c0.617 0.335 1.24 0.743 1.868 1.224v0l-5.962 16.589c0.484 0.231 0.84 0.387 1.066 0.468v0c1.746 0.628 3.294 0.592 4.644-0.107 1.348-0.693 2.327-1.887 2.936-3.583v0c0.535-1.488 0.656-2.92 0.363-4.294-0.293-1.375-0.917-2.56-1.871-3.555v0l1.338-3.721c1.67 1.628 2.791 3.609 3.363 5.942 0.575 2.327 0.417 4.727-0.472 7.202v0c-0.937 2.606-2.439 4.428-4.506 5.465-2.067 1.037-4.404 1.087-7.011 0.15v0c-0.728-0.262-1.483-0.618-2.264-1.07v0c-2.012-1.149-3.617-2.594-4.813-4.336-1.196-1.742-1.924-3.624-2.183-5.645-0.261-2.016-0.033-4.022 0.685-6.019zM23.187 88.784c-0.475-0.256-0.926-0.461-1.353-0.614v0c-1.62-0.582-3.053-0.523-4.298 0.178-1.253 0.705-2.176 1.881-2.767 3.526v0c-0.634 1.765-0.635 3.573-0.003 5.424 0.63 1.857 1.863 3.4 3.698 4.627v0z" fill="#db3e25" data-fill-palette-color="primary"></path><path d="M40.41 45.654l2.671 13.902 11.881 3.125-2.638 3.195-8.739-2.308 2.2 10.228-2.461 2.979-2.651-13.989-11.85-3.099 2.639-3.195 8.659 2.294-2.171-10.152z" fill="#db3e25" data-fill-palette-color="primary"></path><path d="M62.742 40.254c-0.918-2.127-1.334-4.237-1.248-6.33 0.086-2.093 0.624-4.027 1.613-5.803 0.984-1.772 2.351-3.233 4.103-4.384v0c2.264-1.488 4.391-2.098 6.378-1.831 1.988 0.267 3.69 1.333 5.107 3.197v0l-3.297 2.165c-0.848-1.048-1.885-1.636-3.111-1.764-1.217-0.127-2.5 0.253-3.85 1.14v0c-1.746 1.147-2.872 2.745-3.378 4.794-0.501 2.046-0.219 4.292 0.846 6.738v0c0.376 0.815 0.725 1.468 1.047 1.959v0c1.077 1.64 2.345 2.615 3.803 2.927 1.453 0.315 2.91-0.007 4.371-0.967v0c1.344-0.883 2.308-1.968 2.893-3.254 0.584-1.286 0.761-2.688 0.531-4.205v0l3.304-2.171c0.43 2.416 0.174 4.744-0.766 6.983-0.935 2.235-2.515 4.084-4.741 5.545v0c-2.309 1.517-4.575 2.06-6.799 1.628-2.224-0.431-4.087-1.791-5.589-4.077v0c-0.458-0.697-0.864-1.461-1.217-2.29z" fill="#db3e25" data-fill-palette-color="primary"></path><path d="M99.456 1.054l3.509-1.054 3.521 30.047-3.499 1.052z" fill="#db3e25" data-fill-palette-color="primary"></path><path d="M147.035 3.52l3.663-0.049-3.607 22.112-3.663 0.049 0.517-3.23c-0.866 1.14-1.982 2.029-3.348 2.668-1.36 0.632-2.777 0.958-4.251 0.978v0c-2.309 0.031-4.162-0.568-5.56-1.797-1.398-1.229-2.113-3.012-2.144-5.347v0c-0.008-0.587 0.049-1.325 0.17-2.215v0l2.128-12.952 3.613-0.049-2.004 12.47c-0.099 0.562-0.145 1.153-0.136 1.774v0c0.022 1.635 0.489 2.87 1.401 3.705 0.912 0.829 2.172 1.232 3.78 1.211v0c1.928-0.026 3.562-0.649 4.9-1.868 1.345-1.226 2.189-2.996 2.532-5.31v0l0.001 0.12z" fill="#db3e25" data-fill-palette-color="primary"></path><path d="M174.848 31.651c-2.19-0.73-3.811-1.851-4.862-3.362-1.057-1.513-1.293-3.146-0.709-4.9v0c0.11-0.329 0.206-0.564 0.288-0.706v0l3.39 1.13c-0.464 1.055-0.435 2.053 0.089 2.994 0.523 0.941 1.497 1.649 2.921 2.125v0c1.424 0.475 2.668 0.584 3.732 0.326 1.055-0.253 1.748-0.877 2.08-1.871v0c0.281-0.842 0.147-1.622-0.402-2.339-0.553-0.726-1.474-1.613-2.763-2.662v0c-1.137-0.914-2.054-1.729-2.751-2.447-0.692-0.709-1.203-1.551-1.532-2.526-0.325-0.967-0.288-2.048 0.111-3.245v0c0.39-1.171 1.074-2.104 2.052-2.798 0.983-0.692 2.162-1.084 3.536-1.174 1.376-0.097 2.839 0.113 4.39 0.63v0c2.14 0.713 3.718 1.834 4.735 3.362 1.017 1.528 1.238 3.156 0.662 4.884v0c-0.112 0.336-0.21 0.588-0.295 0.757v0l-3.323-1.109 0.189-0.443c0.34-1.019 0.224-1.958-0.348-2.817-0.58-0.855-1.507-1.494-2.779-1.918v0c-1.247-0.416-2.366-0.479-3.355-0.19-0.992 0.295-1.644 0.912-1.956 1.848v0c-0.298 0.893-0.162 1.719 0.408 2.479 0.572 0.753 1.531 1.696 2.877 2.826v0c1.129 0.939 2.019 1.75 2.672 2.432 0.644 0.686 1.125 1.49 1.443 2.412 0.31 0.926 0.278 1.95-0.095 3.07v0c-0.407 1.222-1.125 2.171-2.153 2.849-1.032 0.669-2.265 1.035-3.7 1.098-1.433 0.057-2.95-0.182-4.552-0.715z" fill="#db3e25" data-fill-palette-color="primary"></path><path d="M220.478 25.698c-0.49-0.336-0.785-0.772-0.886-1.311-0.101-0.538 0.017-1.052 0.352-1.542v0c0.452-0.661 1.085-1.065 1.897-1.212 0.814-0.138 1.541 0.012 2.18 0.449v0c0.512 0.351 0.817 0.786 0.914 1.306 0.097 0.519-0.03 1.035-0.38 1.547v0c-0.456 0.666-1.089 1.07-1.898 1.212-0.809 0.142-1.535-0.008-2.179-0.449zM216.396 27.246l3.023 2.07-15.694 15.992-3.014-2.064z" fill="#db3e25" data-fill-palette-color="primary"></path><path d="M240.547 48.923l-11.978 14.672 20.781-4.131 2.528 3.027-24.986 4.499-2.759-3.304 13.886-17.791z" fill="#db3e25" data-fill-palette-color="primary"></path><path d="M267.542 93.825c0.664 1.725 0.907 3.348 0.727 4.869-0.173 1.518-0.726 2.84-1.659 3.964-0.935 1.118-2.169 1.972-3.701 2.562v0c-0.523 0.201-1.185 0.385-1.987 0.551v0c-0.686 0.15-1.424 0.248-2.214 0.294v0l-6.335-16.449c-0.517 0.142-0.888 0.256-1.112 0.342v0c-1.731 0.667-2.879 1.706-3.444 3.118-0.567 1.405-0.527 2.949 0.12 4.63v0c0.568 1.476 1.413 2.638 2.534 3.487 1.121 0.849 2.367 1.337 3.74 1.466v0l1.42 3.69c-2.328-0.14-4.471-0.906-6.43-2.297-1.956-1.385-3.407-3.304-4.352-5.757v0c-0.995-2.584-1.05-4.945-0.163-7.081 0.886-2.136 2.622-3.702 5.206-4.698v0c0.722-0.278 1.526-0.502 2.413-0.671v0c2.274-0.447 4.433-0.402 6.476 0.134 2.044 0.536 3.825 1.484 5.344 2.844 1.516 1.354 2.655 3.022 3.417 5.002zM260.049 102.138c0.527-0.117 1.002-0.257 1.426-0.42v0c1.607-0.619 2.652-1.6 3.135-2.945 0.487-1.353 0.417-2.846-0.212-4.477v0c-0.674-1.75-1.855-3.118-3.544-4.106-1.691-0.993-3.632-1.354-5.823-1.083v0z" fill="#db3e25" data-fill-palette-color="primary"></path><path d="M35.174 183.538c0.705 1.909 0.951 3.7 0.736 5.373-0.217 1.667-0.847 3.109-1.891 4.327-1.044 1.218-2.411 2.139-4.101 2.764v0c-0.582 0.215-1.315 0.408-2.198 0.577v0c-0.759 0.16-1.57 0.256-2.433 0.291v0l-6.719-18.188c-0.578 0.149-0.992 0.27-1.242 0.363v0c-1.909 0.705-3.183 1.83-3.822 3.375-0.641 1.539-0.619 3.234 0.065 5.088v0c0.604 1.634 1.512 2.927 2.725 3.88 1.219 0.951 2.582 1.511 4.089 1.68v0l1.502 4.066c-2.552-0.188-4.896-1.062-7.03-2.621-2.132-1.553-3.698-3.685-4.699-6.395v0c-1.055-2.854-1.078-5.45-0.07-7.786 1.006-2.342 2.936-4.041 5.79-5.095v0c0.801-0.296 1.69-0.528 2.667-0.697v0c2.506-0.456 4.881-0.373 7.124 0.249 2.241 0.616 4.183 1.684 5.826 3.205 1.647 1.512 2.874 3.36 3.681 5.544zM26.806 192.574c0.589-0.118 1.119-0.264 1.588-0.438v0c1.772-0.654 2.935-1.721 3.492-3.2 0.556-1.479 0.501-3.12-0.165-4.922v0c-0.715-1.934-1.996-3.457-3.843-4.567-1.841-1.113-3.972-1.538-6.394-1.277v0z" fill="#db3e25" data-fill-palette-color="primary"></path><path d="M59.794 221.706l-15.562 0.149-5.721 12.237-2.936-3.482 4.217-9.004-11.497 0.373-2.737-3.244 15.653-0.12 5.682-12.204 2.936 3.481-4.174 8.916 11.396-0.354z" fill="#db3e25" data-fill-palette-color="primary"></path><path d="M62.816 240.261c1.732-1.868 3.67-3.226 5.814-4.074 2.146-0.838 4.33-1.155 6.55-0.952 2.22 0.203 4.298 0.93 6.231 2.179v0c2.505 1.619 4.066 3.489 4.682 5.611 0.613 2.112 0.299 4.297-0.945 6.553v0l-3.64-2.353c0.671-1.322 0.799-2.626 0.382-3.912-0.413-1.292-1.362-2.417-2.847-3.377v0c-1.934-1.249-4.042-1.67-6.324-1.261-2.282 0.408-4.417 1.69-6.405 3.845v0c-0.658 0.735-1.162 1.374-1.514 1.919v0c-1.17 1.81-1.587 3.519-1.251 5.126 0.334 1.598 1.308 2.919 2.922 3.962v0c1.485 0.96 3.005 1.449 4.558 1.467 1.55 0.024 3.038-0.417 4.466-1.321v0l3.64 2.352c-2.235 1.504-4.687 2.279-7.355 2.327-2.667 0.057-5.227-0.708-7.682-2.295v0c-2.556-1.651-4.109-3.692-4.661-6.122-0.557-2.434-0.019-4.914 1.615-7.442v0c0.496-0.768 1.084-1.512 1.764-2.232z" fill="#db3e25" data-fill-palette-color="primary"></path><path d="M111.34 241.966l3.868 1.146-14.876 29.752-3.858-1.144z" fill="#db3e25" data-fill-palette-color="primary"></path><path d="M148.174 253.846l4.024 0.06-4.654 24.187-4.023-0.059 0.673-3.534c-0.993 1.227-2.248 2.169-3.766 2.827-1.511 0.652-3.081 0.965-4.709 0.941v0c-2.536-0.038-4.554-0.752-6.055-2.142-1.494-1.397-2.222-3.38-2.185-5.949v0c0.01-0.647 0.095-1.457 0.257-2.429v0l2.733-14.165 3.983 0.059-2.595 13.637c-0.129 0.619-0.199 1.268-0.209 1.949v0c-0.027 1.795 0.447 3.167 1.421 4.116 0.98 0.942 2.355 1.426 4.123 1.452v0c2.122 0.031 3.94-0.606 5.454-1.911 1.508-1.306 2.487-3.223 2.938-5.753v0l-0.001 0.13z" fill="#db3e25" data-fill-palette-color="primary"></path><path d="M182.275 271.613c-2.406 0.8-4.57 0.88-6.492 0.239-1.92-0.634-3.201-1.917-3.844-3.848v0c-0.12-0.361-0.196-0.631-0.227-0.811v0l3.742-1.244c0.286 1.241 0.967 2.105 2.043 2.59 1.08 0.478 2.405 0.455 3.976-0.067v0c1.564-0.52 2.73-1.242 3.499-2.166 0.762-0.922 0.961-1.93 0.597-3.026v0c-0.308-0.924-0.942-1.522-1.904-1.792-0.956-0.273-2.35-0.446-4.182-0.519v0c-1.602-0.058-2.944-0.171-4.026-0.338-1.082-0.167-2.089-0.571-3.019-1.211-0.93-0.64-1.614-1.619-2.052-2.936v0c-0.428-1.285-0.435-2.556-0.023-3.811 0.404-1.26 1.18-2.383 2.329-3.37 1.149-0.987 2.578-1.765 4.287-2.333v0c2.349-0.781 4.476-0.835 6.382-0.161 1.903 0.668 3.172 1.955 3.805 3.861v0c0.122 0.367 0.2 0.654 0.234 0.862v0l-3.657 1.216-0.123-0.529c-0.371-1.114-1.093-1.859-2.167-2.233-1.074-0.374-2.311-0.329-3.71 0.137v0c-1.374 0.457-2.399 1.139-3.075 2.046-0.676 0.907-0.841 1.88-0.496 2.918v0c0.326 0.981 0.988 1.616 1.984 1.904 0.998 0.294 2.463 0.492 4.396 0.595v0c1.616 0.081 2.935 0.209 3.957 0.382 1.021 0.174 1.974 0.564 2.858 1.17 0.886 0.613 1.533 1.533 1.941 2.761v0c0.447 1.342 0.439 2.653-0.021 3.932-0.463 1.272-1.306 2.407-2.528 3.404-1.222 0.997-2.717 1.79-4.484 2.378z" fill="#db3e25" data-fill-palette-color="primary"></path><path d="M202.859 229.772c-0.536 0.363-1.101 0.487-1.694 0.372-0.593-0.114-1.071-0.44-1.434-0.975v0c-0.497-0.735-0.656-1.547-0.474-2.435 0.181-0.888 0.625-1.571 1.332-2.049v0c0.564-0.381 1.133-0.517 1.707-0.406 0.575 0.111 1.051 0.445 1.429 1.003v0c0.497 0.735 0.656 1.547 0.475 2.435-0.186 0.892-0.633 1.577-1.341 2.055zM202.797 234.575l3.333-2.255 10.035 22.495-3.333 2.255z" fill="#db3e25" data-fill-palette-color="primary"></path><path d="M221.569 218.024l18.106 10.289-8.303-21.768 2.815-3.296 9.473 26.256-3.075 3.6-21.837-11.778z" fill="#db3e25" data-fill-palette-color="primary"></path><path d="M244.836 178.991c0.752-1.891 1.767-3.387 3.045-4.487 1.276-1.094 2.709-1.745 4.3-1.953 1.591-0.207 3.223 0.022 4.897 0.688v0c0.577 0.229 1.25 0.576 2.021 1.041v0c0.671 0.389 1.339 0.859 2.002 1.411v0l-7.166 18.016c0.53 0.275 0.918 0.462 1.166 0.561v0c1.891 0.752 3.591 0.768 5.099 0.046 1.506-0.715 2.623-1.991 3.353-3.826v0c0.644-1.618 0.834-3.188 0.57-4.708-0.271-1.522-0.909-2.85-1.917-3.983v0l1.602-4.028c1.772 1.847 2.93 4.063 3.474 6.65 0.546 2.58 0.286 5.213-0.783 7.898v0c-1.125 2.828-2.843 4.773-5.154 5.835-2.314 1.069-4.885 1.041-7.713-0.084v0c-0.794-0.316-1.61-0.737-2.448-1.265v0c-2.169-1.337-3.879-2.987-5.13-4.949-1.254-1.957-1.984-4.05-2.189-6.279-0.214-2.225 0.11-4.42 0.971-6.584zM257.1 177.869c-0.517-0.306-1.009-0.552-1.474-0.737v0c-1.755-0.698-3.334-0.683-4.736 0.045-1.403 0.728-2.459 1.984-3.169 3.77v0c-0.762 1.916-0.828 3.904-0.197 5.965 0.625 2.058 1.925 3.8 3.9 5.225v0z" fill="#db3e25" data-fill-palette-color="primary"></path><path d="M2.086 140.3c0-6.462 5.239-11.701 11.701-11.701 6.462 0 11.701 5.239 11.701 11.701 0 6.462-5.239 11.701-11.701 11.701-6.462 0-11.701-5.239-11.701-11.701z" fill="#db3e25" data-fill-palette-color="primary"></path><path d="M252.782 140.3c0-6.462 5.239-11.701 11.701-11.701 6.462 0 11.701 5.239 11.701 11.701 0 6.462-5.239 11.701-11.701 11.701-6.462 0-11.701-5.239-11.701-11.701z" fill="#db3e25" data-fill-palette-color="primary"></path></g><g id="text-1"></g></svg></g><g transform="matrix(1,0,0,1,53.1494936,299.06530000000004)"><svg viewBox="0 0 171.97061280000003 6.742654497346557" height="6.742654497346557" width="171.97061280000003"><g transform="matrix(1,0,0,1,0,0)"><svg width="171.97061280000003" viewBox="1.3 -38.2 1305.73 51.2" height="6.742654497346557" data-palette-color="#db3e25"><path d="M25.55-31.3L11.4-31.3 9.3-19.35 21.95-19.35 21.35-15.85 8.7-15.85 6.5-3.6 20.7-3.6 20.05 0 1.3 0 7.5-34.9 26.2-34.9 25.55-31.3ZM51.2-27.4L40-13.85 46.4 0 41.25 0 36.55-10.2 28.5 0 23.7 0 35-13.6 28.6-27.4 33.75-27.4 38.4-17.3 46.4-27.4 51.2-27.4ZM51.6-13.75Q52.35-18 54.62-21.18 56.9-24.35 60.25-26.1 63.6-27.85 67.5-27.85L67.5-27.85Q72.55-27.85 75.37-25.4 78.2-22.95 78.5-18.6L78.5-18.6 73.59-18.6Q73.34-21.1 71.57-22.55 69.8-24 66.8-24L66.8-24Q62.9-24 60.02-21.33 57.15-18.65 56.3-13.75L56.3-13.75Q56.05-12.1 56.05-11L56.05-11Q56.05-7.35 58-5.38 59.95-3.4 63.2-3.4L63.2-3.4Q66.2-3.4 68.42-4.8 70.65-6.2 71.84-8.8L71.84-8.8 76.75-8.8Q74.95-4.6 71.2-2.08 67.45 0.45 62.5 0.45L62.5 0.45Q57.35 0.45 54.32-2.5 51.3-5.45 51.3-10.55L51.3-10.55Q51.3-12.1 51.6-13.75L51.6-13.75ZM87.79-37L92.34-37 85.79 0 81.24 0 87.79-37ZM118.14-27.4L122.69-27.4 117.84 0 113.29 0 113.99-4Q112.34-1.9 109.79-0.75 107.24 0.4 104.49 0.4L104.49 0.4Q100.19 0.4 97.62-1.93 95.04-4.25 95.04-8.6L95.04-8.6Q95.04-9.7 95.29-11.35L95.29-11.35 98.14-27.4 102.64-27.4 99.94-11.95Q99.74-10.9 99.74-9.75L99.74-9.75Q99.74-6.7 101.42-5.13 103.09-3.55 106.09-3.55L106.09-3.55Q109.69-3.55 112.22-5.8 114.74-8.05 115.44-12.35L115.44-12.35 115.44-12.2 118.14-27.4ZM135.19 0.45Q130.89 0.45 128.14-1.6 125.39-3.65 125.39-7.1L125.39-7.1Q125.39-7.75 125.44-8.05L125.44-8.05 129.89-8.05Q129.69-5.9 131.16-4.55 132.64-3.2 135.44-3.2L135.44-3.2Q138.24-3.2 139.96-4.28 141.69-5.35 141.69-7.3L141.69-7.3Q141.69-8.95 140.29-9.9 138.89-10.85 135.99-11.95L135.99-11.95Q133.44-12.9 131.79-13.75 130.14-14.6 128.99-16.13 127.84-17.65 127.84-20L127.84-20Q127.84-22.3 129.16-24.1 130.49-25.9 132.86-26.88 135.24-27.85 138.29-27.85L138.29-27.85Q142.49-27.85 145.19-25.75 147.89-23.65 147.89-20.25L147.89-20.25Q147.89-19.6 147.84-19.25L147.84-19.25 143.49-19.25 143.54-19.85Q143.54-21.85 142.01-23.03 140.49-24.2 137.99-24.2L137.99-24.2Q135.54-24.2 133.96-23.1 132.39-22 132.39-20.15L132.39-20.15Q132.39-18.4 133.84-17.4 135.29-16.4 138.34-15.2L138.34-15.2Q140.89-14.2 142.44-13.38 143.99-12.55 145.09-11.1 146.19-9.65 146.19-7.45L146.19-7.45Q146.19-5.05 144.76-3.25 143.34-1.45 140.84-0.5 138.34 0.45 135.19 0.45L135.19 0.45ZM159.59-31.85Q158.49-31.85 157.76-32.58 157.03-33.3 157.03-34.4L157.03-34.4Q157.03-35.9 158.14-36.98 159.24-38.05 160.69-38.05L160.69-38.05Q161.84-38.05 162.53-37.35 163.24-36.65 163.24-35.5L163.24-35.5Q163.24-34 162.14-32.93 161.03-31.85 159.59-31.85L159.59-31.85ZM156.49-27.4L161.03-27.4 156.19 0 151.64 0 156.49-27.4ZM170.43-27.4L174.88-4.3 187.48-27.4 192.38-27.4 176.78 0 171.43 0 165.53-27.4 170.43-27.4ZM208.73-27.85Q212.18-27.85 214.71-26.53 217.23-25.2 218.56-22.83 219.88-20.45 219.88-17.4L219.88-17.4Q219.88-16.35 219.63-14.85L219.63-14.85Q219.43-13.55 218.98-12.15L218.98-12.15 197.08-12.15Q196.98-11.15 196.98-10.7L196.98-10.7Q196.98-7.25 199.06-5.33 201.13-3.4 204.48-3.4L204.48-3.4Q207.43-3.4 209.66-4.78 211.88-6.15 213.03-8.45L213.03-8.45 217.93-8.45Q216.13-4.5 212.41-2.02 208.68 0.45 203.78 0.45L203.78 0.45Q198.63 0.45 195.51-2.53 192.38-5.5 192.38-10.65L192.38-10.65Q192.38-12.1 192.68-13.75L192.68-13.75Q193.43-18 195.73-21.2 198.03-24.4 201.41-26.13 204.78-27.85 208.73-27.85L208.73-27.85ZM215.03-15.45Q215.18-16.45 215.18-17.3L215.18-17.3Q215.18-20.5 213.16-22.25 211.13-24 207.88-24L207.88-24Q204.38-24 201.53-21.73 198.68-19.45 197.68-15.45L197.68-15.45 215.03-15.45ZM240.53-20.25L260.48-20.25 259.78-16.4 239.83-16.4 240.53-20.25ZM305.77-34.85L310.92-34.85 295.72-13.15 293.37 0 288.82 0 291.17-13.15 283.57-34.85 288.67-34.85 294.12-17.3 305.77-34.85ZM321.57 0.45Q318.12 0.45 315.49-0.98 312.87-2.4 311.42-4.98 309.97-7.55 309.97-10.95L309.97-10.95Q309.97-15.6 312.12-19.48 314.27-23.35 318.04-25.6 321.82-27.85 326.47-27.85L326.47-27.85Q329.92-27.85 332.59-26.43 335.27-25 336.74-22.43 338.22-19.85 338.22-16.4L338.22-16.4Q338.22-11.75 336.02-7.9 333.82-4.05 330.02-1.8 326.22 0.45 321.57 0.45L321.57 0.45ZM322.12-3.4Q325.37-3.4 327.97-5.18 330.57-6.95 332.04-9.88 333.52-12.8 333.52-16.15L333.52-16.15Q333.52-19.95 331.32-21.98 329.12-24 325.82-24L325.82-24Q322.57-24 320.02-22.23 317.47-20.45 316.07-17.5 314.67-14.55 314.67-11.15L314.67-11.15Q314.67-7.45 316.77-5.43 318.87-3.4 322.12-3.4L322.12-3.4ZM366.12-27.4L370.67-27.4 365.82 0 361.27 0 361.97-4Q360.32-1.9 357.77-0.75 355.22 0.4 352.47 0.4L352.47 0.4Q348.17 0.4 345.59-1.93 343.02-4.25 343.02-8.6L343.02-8.6Q343.02-9.7 343.27-11.35L343.27-11.35 346.12-27.4 350.62-27.4 347.92-11.95Q347.72-10.9 347.72-9.75L347.72-9.75Q347.72-6.7 349.39-5.13 351.07-3.55 354.07-3.55L354.07-3.55Q357.67-3.55 360.19-5.8 362.72-8.05 363.42-12.35L363.42-12.35 363.42-12.2 366.12-27.4ZM382.01-22.2Q383.66-24.9 386.16-26.4 388.66-27.9 391.86-27.9L391.86-27.9 391.01-23.2 389.81-23.2Q386.26-23.2 383.89-21.3 381.51-19.4 380.71-14.9L380.71-14.9 378.06 0 373.51 0 378.36-27.4 382.91-27.4 382.01-22.2ZM408.06 0.35Q403.71 0.35 400.41-1.48 397.11-3.3 395.29-6.6 393.46-9.9 393.46-14.15L393.46-14.15Q393.46-20.05 396.13-24.88 398.81-29.7 403.51-32.48 408.21-35.25 414.01-35.25L414.01-35.25Q418.41-35.25 421.74-33.43 425.06-31.6 426.86-28.33 428.66-25.05 428.66-20.8L428.66-20.8Q428.66-14.85 425.99-10.03 423.31-5.2 418.61-2.43 413.91 0.35 408.06 0.35L408.06 0.35ZM408.71-3.75Q413.11-3.75 416.59-6.03 420.06-8.3 422.01-12.15 423.96-16 423.96-20.5L423.96-20.5Q423.96-25.45 421.11-28.3 418.26-31.15 413.36-31.15L413.36-31.15Q408.96-31.15 405.49-28.88 402.01-26.6 400.09-22.78 398.16-18.95 398.16-14.45L398.16-14.45Q398.16-9.5 400.99-6.63 403.81-3.75 408.71-3.75L408.71-3.75ZM449.76-27.9Q454.01-27.9 456.56-25.63 459.11-23.35 459.11-19L459.11-19Q459.11-17.4 458.86-16.15L458.86-16.15 456.01 0 451.51 0 454.26-15.5Q454.46-16.55 454.46-17.7L454.46-17.7Q454.46-20.75 452.78-22.35 451.11-23.95 448.11-23.95L448.11-23.95Q444.51-23.95 441.98-21.7 439.46-19.45 438.71-15.15L438.71-15.15 438.71-15.25 436.01 0 431.46 0 436.31-27.4 440.86-27.4 440.16-23.45Q441.86-25.6 444.41-26.75 446.96-27.9 449.76-27.9L449.76-27.9ZM480.21-27.85Q483.66-27.85 486.18-26.53 488.71-25.2 490.03-22.83 491.36-20.45 491.36-17.4L491.36-17.4Q491.36-16.35 491.11-14.85L491.11-14.85Q490.91-13.55 490.46-12.15L490.46-12.15 468.56-12.15Q468.46-11.15 468.46-10.7L468.46-10.7Q468.46-7.25 470.53-5.33 472.61-3.4 475.96-3.4L475.96-3.4Q478.91-3.4 481.13-4.78 483.36-6.15 484.51-8.45L484.51-8.45 489.41-8.45Q487.61-4.5 483.88-2.02 480.16 0.45 475.26 0.45L475.26 0.45Q470.11 0.45 466.98-2.53 463.86-5.5 463.86-10.65L463.86-10.65Q463.86-12.1 464.16-13.75L464.16-13.75Q464.91-18 467.21-21.2 469.51-24.4 472.88-26.13 476.26-27.85 480.21-27.85L480.21-27.85ZM486.51-15.45Q486.66-16.45 486.66-17.3L486.66-17.3Q486.66-20.5 484.63-22.25 482.61-24 479.36-24L479.36-24Q475.86-24 473.01-21.73 470.16-19.45 469.16-15.45L469.16-15.45 486.51-15.45ZM506.35 0.35Q501.5 0.35 498.48-1.98 495.45-4.3 495.45-8.2L495.45-8.2Q495.45-8.95 495.5-9.3L495.5-9.3 500-9.3Q499.85-6.85 501.5-5.1 503.15-3.35 506.55-3.35L506.55-3.35Q509.95-3.35 511.95-4.9 513.95-6.45 513.95-9.25L513.95-9.25Q513.95-10.95 512.98-12.13 512-13.3 510.58-14.08 509.15-14.85 506.7-15.8L506.7-15.8Q503.7-17 501.88-18.05 500.05-19.1 498.8-20.9 497.55-22.7 497.65-25.45L497.65-25.45Q497.65-28.35 499.2-30.6 500.75-32.85 503.48-34.08 506.2-35.3 509.7-35.3L509.7-35.3Q513.1-35.3 515.58-34.15 518.05-33 519.3-30.95 520.55-28.9 520.4-26.35L520.4-26.35 515.65-26.35Q515.75-27.65 515.08-28.85 514.4-30.05 512.98-30.8 511.55-31.55 509.45-31.55L509.45-31.55Q506.2-31.55 504.23-30.03 502.25-28.5 502.25-25.85L502.25-25.85Q502.25-24.3 503.18-23.18 504.1-22.05 505.5-21.28 506.9-20.5 509.35-19.45L509.35-19.45Q512.3-18.2 514.18-17.13 516.05-16.05 517.35-14.25 518.65-12.45 518.65-9.75L518.65-9.75Q518.65-6.85 517.15-4.58 515.65-2.3 512.85-0.98 510.05 0.35 506.35 0.35L506.35 0.35ZM533.3-23.65L530.45-7.5Q530.3-6.75 530.3-6.2L530.3-6.2Q530.3-4.95 531.08-4.4 531.85-3.85 533.6-3.85L533.6-3.85 536.95-3.85 536.25 0 532.15 0Q528.9 0 527.27-1.25 525.65-2.5 525.65-5.35L525.65-5.35Q525.65-6.45 525.85-7.5L525.85-7.5 528.7-23.65 525.2-23.65 525.85-27.4 529.4-27.4 530.6-34.3 535.2-34.3 534-27.4 541.1-27.4 540.45-23.65 533.3-23.65ZM553.8 0.45Q550.35 0.45 547.72-0.98 545.1-2.4 543.65-4.98 542.2-7.55 542.2-10.95L542.2-10.95Q542.2-15.6 544.35-19.48 546.5-23.35 550.27-25.6 554.05-27.85 558.7-27.85L558.7-27.85Q562.15-27.85 564.82-26.43 567.5-25 568.97-22.43 570.45-19.85 570.45-16.4L570.45-16.4Q570.45-11.75 568.25-7.9 566.05-4.05 562.25-1.8 558.45 0.45 553.8 0.45L553.8 0.45ZM554.35-3.4Q557.6-3.4 560.2-5.18 562.8-6.95 564.27-9.88 565.75-12.8 565.75-16.15L565.75-16.15Q565.75-19.95 563.55-21.98 561.35-24 558.05-24L558.05-24Q554.8-24 552.25-22.23 549.7-20.45 548.3-17.5 546.9-14.55 546.9-11.15L546.9-11.15Q546.9-7.45 549-5.43 551.1-3.4 554.35-3.4L554.35-3.4ZM582.24-22.35Q584.04-24.7 586.99-26.28 589.94-27.85 593.44-27.85L593.44-27.85Q596.64-27.85 599.12-26.53 601.59-25.2 602.94-22.73 604.29-20.25 604.29-16.9L604.29-16.9Q604.29-15.45 603.99-13.8L603.99-13.8Q603.24-9.65 600.97-6.4 598.69-3.15 595.42-1.35 592.14 0.45 588.49 0.45L588.49 0.45Q584.99 0.45 582.62-1.13 580.24-2.7 579.19-5.05L579.19-5.05 576.04 13 571.49 13 578.59-27.4 583.14-27.4 582.24-22.35ZM599.34-13.8Q599.54-14.85 599.54-16.1L599.54-16.1Q599.54-19.75 597.39-21.83 595.24-23.9 591.84-23.9L591.84-23.9Q589.34-23.9 586.99-22.68 584.64-21.45 582.97-19.13 581.29-16.8 580.74-13.75L580.74-13.75Q580.54-12.7 580.54-11.45L580.54-11.45Q580.54-7.8 582.72-5.68 584.89-3.55 588.24-3.55L588.24-3.55Q590.79-3.55 593.12-4.78 595.44-6 597.12-8.33 598.79-10.65 599.34-13.8L599.34-13.8ZM619.44 0.35Q614.59 0.35 611.57-1.98 608.54-4.3 608.54-8.2L608.54-8.2Q608.54-8.95 608.59-9.3L608.59-9.3 613.09-9.3Q612.94-6.85 614.59-5.1 616.24-3.35 619.64-3.35L619.64-3.35Q623.04-3.35 625.04-4.9 627.04-6.45 627.04-9.25L627.04-9.25Q627.04-10.95 626.07-12.13 625.09-13.3 623.67-14.08 622.24-14.85 619.79-15.8L619.79-15.8Q616.79-17 614.97-18.05 613.14-19.1 611.89-20.9 610.64-22.7 610.74-25.45L610.74-25.45Q610.74-28.35 612.29-30.6 613.84-32.85 616.57-34.08 619.29-35.3 622.79-35.3L622.79-35.3Q626.19-35.3 628.67-34.15 631.14-33 632.39-30.95 633.64-28.9 633.49-26.35L633.49-26.35 628.74-26.35Q628.84-27.65 628.17-28.85 627.49-30.05 626.07-30.8 624.64-31.55 622.54-31.55L622.54-31.55Q619.29-31.55 617.32-30.03 615.34-28.5 615.34-25.85L615.34-25.85Q615.34-24.3 616.27-23.18 617.19-22.05 618.59-21.28 619.99-20.5 622.44-19.45L622.44-19.45Q625.39-18.2 627.27-17.13 629.14-16.05 630.44-14.25 631.74-12.45 631.74-9.75L631.74-9.75Q631.74-6.85 630.24-4.58 628.74-2.3 625.94-0.98 623.14 0.35 619.44 0.35L619.44 0.35ZM655.19-27.9Q659.29-27.9 661.79-25.63 664.29-23.35 664.29-19.05L664.29-19.05Q664.29-17.45 664.04-16.15L664.04-16.15 661.19 0 656.69 0 659.44-15.5Q659.64-16.55 659.64-17.7L659.64-17.7Q659.64-20.75 657.96-22.35 656.29-23.95 653.29-23.95L653.29-23.95Q649.69-23.95 647.16-21.7 644.64-19.45 643.89-15.15L643.89-15.15 643.89-15.25 641.19 0 636.64 0 643.19-37 647.74-37 645.34-23.45Q647.04-25.55 649.66-26.73 652.29-27.9 655.19-27.9L655.19-27.9ZM680.69 0.45Q677.24 0.45 674.61-0.98 671.99-2.4 670.54-4.98 669.09-7.55 669.09-10.95L669.09-10.95Q669.09-15.6 671.24-19.48 673.39-23.35 677.16-25.6 680.94-27.85 685.59-27.85L685.59-27.85Q689.04-27.85 691.71-26.43 694.39-25 695.86-22.43 697.34-19.85 697.34-16.4L697.34-16.4Q697.34-11.75 695.14-7.9 692.94-4.05 689.14-1.8 685.34 0.45 680.69 0.45L680.69 0.45ZM681.24-3.4Q684.49-3.4 687.09-5.18 689.69-6.95 691.16-9.88 692.64-12.8 692.64-16.15L692.64-16.15Q692.64-19.95 690.44-21.98 688.24-24 684.94-24L684.94-24Q681.69-24 679.14-22.23 676.59-20.45 675.19-17.5 673.79-14.55 673.79-11.15L673.79-11.15Q673.79-7.45 675.89-5.43 677.99-3.4 681.24-3.4L681.24-3.4ZM709.13-22.35Q710.93-24.7 713.88-26.28 716.83-27.85 720.33-27.85L720.33-27.85Q723.53-27.85 726.01-26.53 728.48-25.2 729.83-22.73 731.18-20.25 731.18-16.9L731.18-16.9Q731.18-15.45 730.88-13.8L730.88-13.8Q730.13-9.65 727.86-6.4 725.58-3.15 722.31-1.35 719.03 0.45 715.38 0.45L715.38 0.45Q711.88 0.45 709.51-1.13 707.13-2.7 706.08-5.05L706.08-5.05 702.93 13 698.38 13 705.48-27.4 710.03-27.4 709.13-22.35ZM726.23-13.8Q726.43-14.85 726.43-16.1L726.43-16.1Q726.43-19.75 724.28-21.83 722.13-23.9 718.73-23.9L718.73-23.9Q716.23-23.9 713.88-22.68 711.53-21.45 709.86-19.13 708.18-16.8 707.63-13.75L707.63-13.75Q707.43-12.7 707.43-11.45L707.43-11.45Q707.43-7.8 709.61-5.68 711.78-3.55 715.13-3.55L715.13-3.55Q717.68-3.55 720.01-4.78 722.33-6 724.01-8.33 725.68-10.65 726.23-13.8L726.23-13.8ZM751.38-34.4Q748.33-34.4 746.91-33.23 745.48-32.05 745.03-29.35L745.03-29.35 744.68-27.4 750.43-27.4 749.78-23.65 744.03-23.65 739.83 0 735.28 0 739.43-23.65 735.93-23.65 736.58-27.4 740.08-27.4 740.43-29.35Q741.28-33.95 744.03-36.08 746.78-38.2 752.03-38.2L752.03-38.2 751.38-34.4ZM762.93 0.45Q759.48 0.45 756.85-0.98 754.23-2.4 752.78-4.98 751.33-7.55 751.33-10.95L751.33-10.95Q751.33-15.6 753.48-19.48 755.63-23.35 759.4-25.6 763.18-27.85 767.83-27.85L767.83-27.85Q771.28-27.85 773.95-26.43 776.63-25 778.1-22.43 779.58-19.85 779.58-16.4L779.58-16.4Q779.58-11.75 777.38-7.9 775.18-4.05 771.38-1.8 767.58 0.45 762.93 0.45L762.93 0.45ZM763.48-3.4Q766.73-3.4 769.33-5.18 771.93-6.95 773.4-9.88 774.88-12.8 774.88-16.15L774.88-16.15Q774.88-19.95 772.68-21.98 770.48-24 767.18-24L767.18-24Q763.93-24 761.38-22.23 758.83-20.45 757.43-17.5 756.03-14.55 756.03-11.15L756.03-11.15Q756.03-7.45 758.13-5.43 760.23-3.4 763.48-3.4L763.48-3.4ZM791.38-22.2Q793.03-24.9 795.53-26.4 798.03-27.9 801.23-27.9L801.23-27.9 800.38-23.2 799.18-23.2Q795.63-23.2 793.25-21.3 790.88-19.4 790.08-14.9L790.08-14.9 787.43 0 782.88 0 787.73-27.4 792.28-27.4 791.38-22.2ZM817.42 0.35Q813.07 0.35 809.77-1.48 806.47-3.3 804.65-6.6 802.82-9.9 802.82-14.15L802.82-14.15Q802.82-20.05 805.5-24.88 808.17-29.7 812.87-32.48 817.57-35.25 823.37-35.25L823.37-35.25Q827.77-35.25 831.1-33.43 834.42-31.6 836.22-28.33 838.02-25.05 838.02-20.8L838.02-20.8Q838.02-14.85 835.35-10.03 832.67-5.2 827.97-2.43 823.27 0.35 817.42 0.35L817.42 0.35ZM818.07-3.75Q822.47-3.75 825.95-6.03 829.42-8.3 831.37-12.15 833.32-16 833.32-20.5L833.32-20.5Q833.32-25.45 830.47-28.3 827.62-31.15 822.72-31.15L822.72-31.15Q818.32-31.15 814.85-28.88 811.37-26.6 809.45-22.78 807.52-18.95 807.52-14.45L807.52-14.45Q807.52-9.5 810.35-6.63 813.17-3.75 818.07-3.75L818.07-3.75ZM847.32-27.4L851.77-4.3 864.37-27.4 869.27-27.4 853.67 0 848.32 0 842.42-27.4 847.32-27.4ZM885.62-27.85Q889.07-27.85 891.59-26.53 894.12-25.2 895.44-22.83 896.77-20.45 896.77-17.4L896.77-17.4Q896.77-16.35 896.52-14.85L896.52-14.85Q896.32-13.55 895.87-12.15L895.87-12.15 873.97-12.15Q873.87-11.15 873.87-10.7L873.87-10.7Q873.87-7.25 875.94-5.33 878.02-3.4 881.37-3.4L881.37-3.4Q884.32-3.4 886.54-4.78 888.77-6.15 889.92-8.45L889.92-8.45 894.82-8.45Q893.02-4.5 889.29-2.02 885.57 0.45 880.67 0.45L880.67 0.45Q875.52 0.45 872.39-2.53 869.27-5.5 869.27-10.65L869.27-10.65Q869.27-12.1 869.57-13.75L869.57-13.75Q870.32-18 872.62-21.2 874.92-24.4 878.29-26.13 881.67-27.85 885.62-27.85L885.62-27.85ZM891.92-15.45Q892.07-16.45 892.07-17.3L892.07-17.3Q892.07-20.5 890.04-22.25 888.02-24 884.77-24L884.77-24Q881.27-24 878.42-21.73 875.57-19.45 874.57-15.45L874.57-15.45 891.92-15.45ZM908.37-22.2Q910.02-24.9 912.52-26.4 915.02-27.9 918.22-27.9L918.22-27.9 917.37-23.2 916.17-23.2Q912.62-23.2 910.24-21.3 907.87-19.4 907.07-14.9L907.07-14.9 904.42 0 899.87 0 904.72-27.4 909.27-27.4 908.37-22.2ZM926.86-31.3L922.06-31.3 922.81-35.45 932.21-35.45 925.96 0 921.36 0 926.86-31.3ZM971.11-34.6L975.96-34.6 969.86 0 965.31 0 969.86-25.8 953.81 0 950.61 0 943.61-25.7 939.06 0 934.51 0 940.66-34.6 945.56-34.6 953.31-6 971.11-34.6ZM985.51-31.85Q984.41-31.85 983.68-32.58 982.96-33.3 982.96-34.4L982.96-34.4Q982.96-35.9 984.06-36.98 985.16-38.05 986.61-38.05L986.61-38.05Q987.76-38.05 988.46-37.35 989.16-36.65 989.16-35.5L989.16-35.5Q989.16-34 988.06-32.93 986.96-31.85 985.51-31.85L985.51-31.85ZM982.41-27.4L986.96-27.4 982.11 0 977.56 0 982.41-27.4ZM996.41-37L1000.96-37 994.41 0 989.86 0 996.41-37ZM1008.7-37L1013.25-37 1006.7 0 1002.15 0 1008.7-37ZM1022.4-31.85Q1021.3-31.85 1020.58-32.58 1019.85-33.3 1019.85-34.4L1019.85-34.4Q1019.85-35.9 1020.95-36.98 1022.05-38.05 1023.5-38.05L1023.5-38.05Q1024.65-38.05 1025.35-37.35 1026.05-36.65 1026.05-35.5L1026.05-35.5Q1026.05-34 1024.95-32.93 1023.85-31.85 1022.4-31.85L1022.4-31.85ZM1019.3-27.4L1023.85-27.4 1019 0 1014.45 0 1019.3-27.4ZM1038.8 0.45Q1035.35 0.45 1032.72-0.98 1030.1-2.4 1028.65-4.98 1027.2-7.55 1027.2-10.95L1027.2-10.95Q1027.2-15.6 1029.35-19.48 1031.5-23.35 1035.27-25.6 1039.05-27.85 1043.7-27.85L1043.7-27.85Q1047.15-27.85 1049.82-26.43 1052.5-25 1053.97-22.43 1055.45-19.85 1055.45-16.4L1055.45-16.4Q1055.45-11.75 1053.25-7.9 1051.05-4.05 1047.25-1.8 1043.45 0.45 1038.8 0.45L1038.8 0.45ZM1039.35-3.4Q1042.6-3.4 1045.2-5.18 1047.8-6.95 1049.27-9.88 1050.75-12.8 1050.75-16.15L1050.75-16.15Q1050.75-19.95 1048.55-21.98 1046.35-24 1043.05-24L1043.05-24Q1039.8-24 1037.25-22.23 1034.7-20.45 1033.3-17.5 1031.9-14.55 1031.9-11.15L1031.9-11.15Q1031.9-7.45 1034-5.43 1036.1-3.4 1039.35-3.4L1039.35-3.4ZM1077.05-27.9Q1081.3-27.9 1083.85-25.63 1086.4-23.35 1086.4-19L1086.4-19Q1086.4-17.4 1086.15-16.15L1086.15-16.15 1083.3 0 1078.8 0 1081.55-15.5Q1081.75-16.55 1081.75-17.7L1081.75-17.7Q1081.75-20.75 1080.07-22.35 1078.4-23.95 1075.4-23.95L1075.4-23.95Q1071.8-23.95 1069.27-21.7 1066.75-19.45 1066-15.15L1066-15.15 1066-15.25 1063.3 0 1058.75 0 1063.6-27.4 1068.15-27.4 1067.45-23.45Q1069.15-25.6 1071.7-26.75 1074.25-27.9 1077.05-27.9L1077.05-27.9ZM1118.39-24.65Q1117.64-20.3 1114.14-17.43 1110.64-14.55 1104.59-14.55L1104.59-14.55 1097.89-14.55 1095.29 0 1090.74 0 1096.94-34.85 1108.19-34.85Q1113.39-34.85 1115.99-32.63 1118.59-30.4 1118.59-26.7L1118.59-26.7Q1118.59-26.05 1118.39-24.65L1118.39-24.65ZM1105.24-18.15Q1108.99-18.15 1111.09-19.88 1113.19-21.6 1113.74-24.65L1113.74-24.65Q1113.89-25.55 1113.89-26.3L1113.89-26.3Q1113.89-31.25 1107.54-31.25L1107.54-31.25 1100.84-31.25 1098.54-18.15 1105.24-18.15ZM1128.19-22.2Q1129.84-24.9 1132.34-26.4 1134.84-27.9 1138.04-27.9L1138.04-27.9 1137.19-23.2 1135.99-23.2Q1132.44-23.2 1130.07-21.3 1127.69-19.4 1126.89-14.9L1126.89-14.9 1124.24 0 1119.69 0 1124.54-27.4 1129.09-27.4 1128.19-22.2ZM1150.39 0.45Q1146.94 0.45 1144.31-0.98 1141.69-2.4 1140.24-4.98 1138.79-7.55 1138.79-10.95L1138.79-10.95Q1138.79-15.6 1140.94-19.48 1143.09-23.35 1146.86-25.6 1150.64-27.85 1155.29-27.85L1155.29-27.85Q1158.74-27.85 1161.41-26.43 1164.09-25 1165.56-22.43 1167.04-19.85 1167.04-16.4L1167.04-16.4Q1167.04-11.75 1164.84-7.9 1162.64-4.05 1158.84-1.8 1155.04 0.45 1150.39 0.45L1150.39 0.45ZM1150.94-3.4Q1154.19-3.4 1156.79-5.18 1159.39-6.95 1160.86-9.88 1162.34-12.8 1162.34-16.15L1162.34-16.15Q1162.34-19.95 1160.14-21.98 1157.94-24 1154.64-24L1154.64-24Q1151.39-24 1148.84-22.23 1146.29-20.45 1144.89-17.5 1143.49-14.55 1143.49-11.15L1143.49-11.15Q1143.49-7.45 1145.59-5.43 1147.69-3.4 1150.94-3.4L1150.94-3.4ZM1171.04-13.8Q1171.79-18 1174.06-21.18 1176.34-24.35 1179.64-26.1 1182.94-27.85 1186.64-27.85L1186.64-27.85Q1189.79-27.85 1192.29-26.38 1194.79-24.9 1195.84-22.5L1195.84-22.5 1198.39-37 1202.99-37 1196.44 0 1191.84 0 1192.79-5.15Q1191.04-2.7 1188.09-1.13 1185.14 0.45 1181.59 0.45L1181.59 0.45Q1178.39 0.45 1175.94-0.93 1173.49-2.3 1172.11-4.85 1170.74-7.4 1170.74-10.75L1170.74-10.75Q1170.74-12.25 1171.04-13.8L1171.04-13.8ZM1194.29-13.75Q1194.49-14.8 1194.49-16L1194.49-16Q1194.49-19.65 1192.31-21.78 1190.14-23.9 1186.79-23.9L1186.79-23.9Q1184.24-23.9 1181.91-22.7 1179.59-21.5 1177.94-19.2 1176.29-16.9 1175.74-13.8L1175.74-13.8Q1175.54-12.75 1175.54-11.5L1175.54-11.5Q1175.54-7.8 1177.69-5.68 1179.84-3.55 1183.19-3.55L1183.19-3.55Q1185.74-3.55 1188.06-4.78 1190.39-6 1192.06-8.33 1193.74-10.65 1194.29-13.75L1194.29-13.75ZM1228.73-27.4L1233.28-27.4 1228.43 0 1223.88 0 1224.58-4Q1222.93-1.9 1220.38-0.75 1217.83 0.4 1215.08 0.4L1215.08 0.4Q1210.78 0.4 1208.21-1.93 1205.63-4.25 1205.63-8.6L1205.63-8.6Q1205.63-9.7 1205.88-11.35L1205.88-11.35 1208.73-27.4 1213.23-27.4 1210.53-11.95Q1210.33-10.9 1210.33-9.75L1210.33-9.75Q1210.33-6.7 1212.01-5.13 1213.68-3.55 1216.68-3.55L1216.68-3.55Q1220.28-3.55 1222.81-5.8 1225.33-8.05 1226.03-12.35L1226.03-12.35 1226.03-12.2 1228.73-27.4ZM1236.83-13.75Q1237.58-18 1239.86-21.18 1242.13-24.35 1245.48-26.1 1248.83-27.85 1252.73-27.85L1252.73-27.85Q1257.78-27.85 1260.61-25.4 1263.43-22.95 1263.73-18.6L1263.73-18.6 1258.83-18.6Q1258.58-21.1 1256.81-22.55 1255.03-24 1252.03-24L1252.03-24Q1248.13-24 1245.26-21.33 1242.38-18.65 1241.53-13.75L1241.53-13.75Q1241.28-12.1 1241.28-11L1241.28-11Q1241.28-7.35 1243.23-5.38 1245.18-3.4 1248.43-3.4L1248.43-3.4Q1251.43-3.4 1253.66-4.8 1255.88-6.2 1257.08-8.8L1257.08-8.8 1261.98-8.8Q1260.18-4.6 1256.43-2.08 1252.68 0.45 1247.73 0.45L1247.73 0.45Q1242.58 0.45 1239.56-2.5 1236.53-5.45 1236.53-10.55L1236.53-10.55Q1236.53-12.1 1236.83-13.75L1236.83-13.75ZM1276.23-23.65L1273.38-7.5Q1273.23-6.75 1273.23-6.2L1273.23-6.2Q1273.23-4.95 1274-4.4 1274.78-3.85 1276.53-3.85L1276.53-3.85 1279.88-3.85 1279.18 0 1275.08 0Q1271.83 0 1270.2-1.25 1268.58-2.5 1268.58-5.35L1268.58-5.35Q1268.58-6.45 1268.78-7.5L1268.78-7.5 1271.63-23.65 1268.13-23.65 1268.78-27.4 1272.33-27.4 1273.53-34.3 1278.13-34.3 1276.93-27.4 1284.03-27.4 1283.38-23.65 1276.23-23.65ZM1294.33 0.45Q1290.03 0.45 1287.28-1.6 1284.53-3.65 1284.53-7.1L1284.53-7.1Q1284.53-7.75 1284.58-8.05L1284.58-8.05 1289.03-8.05Q1288.83-5.9 1290.3-4.55 1291.78-3.2 1294.58-3.2L1294.58-3.2Q1297.38-3.2 1299.1-4.28 1300.83-5.35 1300.83-7.3L1300.83-7.3Q1300.83-8.95 1299.43-9.9 1298.03-10.85 1295.13-11.95L1295.13-11.95Q1292.58-12.9 1290.93-13.75 1289.28-14.6 1288.13-16.13 1286.98-17.65 1286.98-20L1286.98-20Q1286.98-22.3 1288.3-24.1 1289.63-25.9 1292-26.88 1294.38-27.85 1297.43-27.85L1297.43-27.85Q1301.63-27.85 1304.33-25.75 1307.03-23.65 1307.03-20.25L1307.03-20.25Q1307.03-19.6 1306.98-19.25L1306.98-19.25 1302.63-19.25 1302.68-19.85Q1302.68-21.85 1301.15-23.03 1299.63-24.2 1297.13-24.2L1297.13-24.2Q1294.68-24.2 1293.1-23.1 1291.53-22 1291.53-20.15L1291.53-20.15Q1291.53-18.4 1292.98-17.4 1294.43-16.4 1297.48-15.2L1297.48-15.2Q1300.03-14.2 1301.58-13.38 1303.13-12.55 1304.23-11.1 1305.33-9.65 1305.33-7.45L1305.33-7.45Q1305.33-5.05 1303.9-3.25 1302.48-1.45 1299.98-0.5 1297.48 0.45 1294.33 0.45L1294.33 0.45Z" opacity="1" transform="matrix(1,0,0,1,0,0)" fill="#db3e25" class="slogan-text-1" data-fill-palette-color="secondary" id="text-1"></path></svg></g></svg></g></svg></g></svg></g></svg></g><defs></defs></svg><rect width="254.7856811902388" height="280" fill="none" stroke="none" visibility="hidden"></rect></g></svg></g></svg>